<svg  xmlns="http://www.w3.org/2000/svg" xmlns:xlink="http://www.w3.org/1999/xlink" width="30px" height="30px">
  <path fill-rule="evenodd"  fill="rgb(79, 53, 37)" d="M15.000,0.855 L15.683,1.539 C15.776,1.416 15.879,1.301 15.991,1.198 C16.023,1.168 16.056,1.139 16.089,1.112 L15.208,0.231 L15.000,0.022 L14.792,0.231 L13.911,1.112 C13.944,1.139 13.977,1.168 14.009,1.198 C14.121,1.301 14.224,1.416 14.316,1.539 L15.000,0.855 L15.000,0.855 ZM15.000,29.043 L14.324,28.367 C14.230,28.495 14.124,28.613 14.009,28.720 C13.980,28.746 13.951,28.773 13.921,28.798 L14.792,29.669 L15.000,29.877 L15.208,29.669 L16.079,28.798 C16.049,28.773 16.020,28.746 15.991,28.720 C15.876,28.613 15.770,28.495 15.676,28.367 L15.000,29.043 L15.000,29.043 ZM15.000,27.003 C14.967,27.119 14.830,27.605 14.815,27.774 C14.802,27.931 14.940,28.222 14.994,28.328 L15.000,28.340 L15.006,28.328 C15.059,28.222 15.198,27.931 15.185,27.774 C15.170,27.605 15.033,27.119 15.000,27.003 L15.000,27.003 ZM15.000,26.207 L14.993,26.209 C14.931,26.223 14.814,26.263 14.790,26.368 C14.757,26.511 14.721,26.619 14.514,26.688 C14.307,26.757 14.392,26.991 14.392,26.991 C14.594,26.993 14.798,26.997 15.000,26.995 C15.201,26.997 15.405,26.993 15.607,26.991 C15.607,26.991 15.693,26.757 15.486,26.688 C15.279,26.619 15.243,26.511 15.209,26.368 C15.186,26.263 15.069,26.223 15.006,26.209 L15.000,26.207 L15.000,26.207 ZM15.000,25.086 L14.989,25.090 C14.826,25.149 14.628,25.228 14.367,25.160 C14.127,25.097 13.896,24.633 13.951,24.618 C14.158,24.559 14.090,24.814 14.449,25.016 C14.589,25.095 14.802,25.015 15.000,24.942 C15.198,25.015 15.411,25.095 15.551,25.016 C15.910,24.814 15.842,24.559 16.049,24.618 C16.104,24.633 15.873,25.097 15.633,25.160 C15.372,25.228 15.174,25.149 15.011,25.090 L15.000,25.086 L15.000,25.086 ZM15.000,24.347 L14.994,24.342 C14.265,23.574 13.815,24.086 14.236,24.428 C14.217,24.494 12.309,24.014 13.768,25.235 C12.890,26.084 14.169,25.823 14.404,25.454 C14.377,25.751 13.763,26.163 14.087,26.311 C14.277,26.399 14.885,26.034 15.000,25.963 C15.115,26.034 15.723,26.399 15.913,26.311 C16.236,26.163 15.623,25.751 15.596,25.454 C15.830,25.823 17.110,26.084 16.232,25.235 C17.691,24.014 15.783,24.494 15.764,24.428 C16.185,24.086 15.734,23.574 15.006,24.342 L15.000,24.347 L15.000,24.347 ZM15.000,22.348 C14.590,21.502 13.655,22.150 14.315,21.093 L15.000,20.439 L15.685,21.093 C16.345,22.150 15.409,21.502 15.000,22.348 L15.000,22.348 ZM15.000,19.999 L14.991,19.999 L14.991,20.000 L14.991,19.998 L13.631,21.250 C13.550,21.206 13.474,21.166 13.483,21.156 C13.561,21.191 13.111,21.242 13.082,21.087 C12.898,20.102 12.281,20.083 12.302,20.762 C12.305,20.840 10.937,19.257 11.491,20.967 C10.453,21.262 11.909,21.339 12.284,22.009 C11.231,21.472 10.583,21.301 10.654,21.631 C10.716,21.922 11.206,22.049 11.319,22.121 C11.063,22.199 10.374,22.212 10.421,22.624 C10.479,23.129 11.323,22.500 11.301,22.563 C11.027,23.320 11.438,23.026 11.556,22.605 C11.529,22.704 11.539,22.803 11.635,22.986 C11.790,23.282 12.337,22.526 12.341,22.218 C12.389,22.270 12.420,24.229 12.903,23.224 C14.195,24.590 13.472,22.720 13.551,22.748 C14.863,23.220 14.385,22.755 13.878,22.181 C14.235,22.270 14.730,22.219 14.834,22.683 C14.939,23.145 14.680,23.891 14.680,23.891 C14.680,23.891 14.778,23.834 14.890,23.845 C14.922,23.849 14.955,23.862 14.989,23.874 L14.989,23.885 L15.000,23.880 L15.011,23.885 L15.011,23.874 C15.044,23.862 15.078,23.849 15.110,23.845 C15.222,23.834 15.319,23.891 15.319,23.891 C15.319,23.891 15.061,23.145 15.165,22.683 C15.269,22.219 15.764,22.270 16.121,22.181 C15.615,22.755 15.137,23.220 16.449,22.748 C16.528,22.720 15.805,24.590 17.097,23.224 C17.580,24.229 17.611,22.270 17.659,22.218 C17.663,22.526 18.210,23.282 18.365,22.986 C18.461,22.803 18.470,22.704 18.443,22.605 C18.562,23.026 18.972,23.320 18.699,22.563 C18.677,22.500 19.521,23.129 19.578,22.624 C19.626,22.212 18.937,22.199 18.681,22.121 C18.794,22.049 19.284,21.922 19.346,21.631 C19.417,21.301 18.768,21.472 17.716,22.009 C18.091,21.339 19.547,21.262 18.509,20.967 C19.063,19.257 17.695,20.840 17.698,20.762 C17.719,20.083 17.102,20.102 16.918,21.087 C16.889,21.242 16.439,21.191 16.517,21.156 C16.525,21.166 16.449,21.206 16.369,21.250 L15.009,19.998 L15.009,20.000 L15.009,19.999 L15.000,19.999 L15.000,19.999 ZM15.000,19.634 L14.831,19.405 L14.628,19.894 L14.686,19.972 L15.000,19.710 L15.314,19.972 L15.372,19.894 L15.169,19.405 L15.000,19.634 L15.000,19.634 ZM15.000,18.996 L14.865,19.322 L14.999,19.505 L15.000,19.504 L15.000,19.505 L15.135,19.322 L15.000,18.996 L15.000,18.996 ZM15.000,18.039 L14.994,18.027 L14.856,18.361 L14.989,18.660 L14.989,18.660 L14.989,18.728 L15.000,18.703 L15.011,18.728 L15.011,18.660 L15.011,18.660 L15.144,18.361 L15.006,18.027 L15.000,18.039 L15.000,18.039 ZM15.000,17.053 L14.989,17.055 L14.935,16.997 L14.796,17.333 L15.000,17.333 L15.204,17.333 L15.065,16.997 L15.011,17.055 L15.000,17.053 L15.000,17.053 ZM15.000,15.972 L14.246,14.959 L15.000,13.945 L15.754,14.959 L15.000,15.972 L15.000,15.972 ZM15.000,13.242 L14.989,13.258 L13.838,14.959 L14.989,16.659 L15.000,16.675 L15.011,16.659 L16.162,14.959 L15.011,13.258 L15.000,13.242 L15.000,13.242 ZM15.000,14.085 L14.989,14.099 L14.350,14.959 L15.000,15.833 L15.650,14.959 L15.011,14.099 L15.000,14.085 L15.000,14.085 ZM15.000,12.584 L14.796,12.584 L14.935,12.920 L14.989,12.862 L15.000,12.865 L15.011,12.862 L15.065,12.920 L15.204,12.584 L15.000,12.584 L15.000,12.584 ZM15.000,11.214 L14.989,11.188 L14.989,11.257 L14.989,11.257 L14.856,11.557 L14.994,11.891 L15.000,11.878 L15.006,11.891 L15.144,11.557 L15.011,11.257 L15.011,11.257 L15.011,11.188 L15.000,11.214 L15.000,11.214 ZM15.000,10.413 L14.999,10.412 L14.865,10.595 L15.000,10.921 L15.135,10.595 L15.000,10.412 L15.000,10.413 L15.000,10.413 ZM15.000,10.208 L14.686,9.945 L14.628,10.023 L14.831,10.512 L15.000,10.284 L15.169,10.512 L15.372,10.023 L15.314,9.945 L15.000,10.208 L15.000,10.208 ZM15.000,9.477 L14.315,8.824 C13.655,7.767 14.590,8.416 15.000,7.569 C15.409,8.416 16.345,7.767 15.685,8.824 L15.000,9.477 L15.000,9.477 ZM15.000,6.036 L14.989,6.032 L14.989,6.043 C14.955,6.055 14.922,6.069 14.890,6.071 C14.778,6.083 14.680,6.027 14.680,6.027 C14.680,6.027 14.939,6.772 14.834,7.235 C14.730,7.698 14.235,7.648 13.878,7.736 C14.385,7.163 14.863,6.698 13.551,7.168 C13.472,7.197 14.195,5.327 12.903,6.693 C12.420,5.688 12.389,7.648 12.341,7.699 C12.337,7.391 11.790,6.635 11.635,6.931 C11.539,7.114 11.529,7.213 11.556,7.312 C11.438,6.891 11.027,6.598 11.301,7.354 C11.323,7.417 10.479,6.789 10.421,7.293 C10.374,7.705 11.063,7.719 11.319,7.797 C11.206,7.868 10.716,7.995 10.654,8.286 C10.583,8.617 11.231,8.445 12.284,7.908 C11.909,8.579 10.453,8.655 11.491,8.951 C10.937,10.659 12.305,9.077 12.302,9.154 C12.281,9.834 12.898,9.815 13.082,8.830 C13.111,8.675 13.561,8.726 13.483,8.761 C13.474,8.751 13.550,8.711 13.631,8.667 L14.991,9.919 L14.991,9.918 L14.991,9.918 L15.000,9.918 L15.009,9.918 L15.009,9.918 L15.009,9.919 L16.369,8.667 C16.449,8.711 16.525,8.751 16.517,8.761 C16.439,8.726 16.889,8.675 16.918,8.830 C17.102,9.815 17.719,9.834 17.698,9.154 C17.695,9.077 19.063,10.659 18.509,8.951 C19.547,8.655 18.091,8.579 17.716,7.908 C18.768,8.445 19.417,8.617 19.346,8.286 C19.284,7.995 18.794,7.868 18.681,7.797 C18.937,7.719 19.626,7.705 19.578,7.293 C19.521,6.789 18.677,7.417 18.699,7.354 C18.972,6.598 18.562,6.891 18.443,7.312 C18.470,7.213 18.461,7.114 18.365,6.931 C18.210,6.635 17.663,7.391 17.659,7.699 C17.611,7.648 17.580,5.688 17.097,6.693 C15.805,5.327 16.528,7.197 16.449,7.168 C15.137,6.698 15.615,7.163 16.121,7.736 C15.764,7.648 15.269,7.698 15.165,7.235 C15.061,6.772 15.319,6.027 15.319,6.027 C15.319,6.027 15.222,6.083 15.110,6.071 C15.078,6.069 15.044,6.055 15.011,6.043 L15.011,6.032 L15.000,6.036 L15.000,6.036 ZM15.000,4.975 C14.802,4.902 14.589,4.822 14.449,4.901 C14.090,5.104 14.158,5.358 13.951,5.299 C13.896,5.284 14.127,4.821 14.367,4.758 C14.628,4.689 14.826,4.768 14.989,4.828 L14.989,4.838 L15.000,4.834 L15.011,4.838 L15.011,4.828 C15.174,4.768 15.372,4.689 15.633,4.758 C15.873,4.821 16.104,5.284 16.049,5.299 C15.842,5.358 15.910,5.104 15.551,4.901 C15.411,4.822 15.198,4.902 15.000,4.975 L15.000,4.975 ZM15.000,3.955 C14.885,3.884 14.277,3.519 14.087,3.606 C13.763,3.755 14.377,4.166 14.404,4.463 C14.169,4.094 12.890,3.833 13.768,4.683 C12.309,5.903 14.217,5.423 14.236,5.489 C13.815,5.831 14.265,6.343 14.994,5.576 L15.000,5.570 L15.006,5.576 C15.734,6.343 16.185,5.831 15.764,5.489 C15.783,5.423 17.691,5.903 16.232,4.683 C17.110,3.833 15.830,4.094 15.596,4.463 C15.623,4.166 16.236,3.755 15.913,3.606 C15.723,3.519 15.115,3.884 15.000,3.955 L15.000,3.955 ZM15.000,2.922 C14.798,2.920 14.594,2.925 14.392,2.925 C14.392,2.925 14.307,3.160 14.514,3.230 C14.721,3.298 14.757,3.407 14.790,3.550 C14.814,3.654 14.931,3.694 14.993,3.709 L15.000,3.710 L15.006,3.709 C15.069,3.694 15.186,3.654 15.209,3.550 C15.243,3.407 15.279,3.298 15.486,3.230 C15.693,3.160 15.607,2.925 15.607,2.925 C15.405,2.925 15.201,2.920 15.000,2.922 L15.000,2.922 ZM15.000,1.578 L14.994,1.590 C14.940,1.695 14.802,1.986 14.815,2.143 C14.830,2.313 14.967,2.799 15.000,2.915 C15.033,2.799 15.170,2.313 15.185,2.143 C15.198,1.986 15.059,1.695 15.006,1.590 L15.000,1.578 L15.000,1.578 ZM-0.000,11.129 L-0.000,11.765 L0.003,11.763 L2.617,14.377 L2.942,14.066 L0.003,11.127 L-0.000,11.129 L-0.000,11.129 ZM2.675,15.563 L0.003,18.235 L-0.000,18.233 L-0.000,18.869 L0.003,18.872 L3.000,15.875 L2.675,15.563 L2.675,15.563 ZM12.384,-0.001 L12.782,-0.001 L12.782,0.709 C13.157,0.807 13.493,0.972 13.770,1.185 C13.818,1.223 13.864,1.263 13.909,1.305 C14.057,1.443 14.189,1.600 14.299,1.772 C14.460,2.040 14.551,2.340 14.551,2.658 L14.219,2.658 C14.158,2.239 13.966,1.864 13.686,1.579 L13.686,1.578 C13.352,1.237 12.892,1.022 12.384,1.012 L12.384,0.992 L12.384,0.633 L12.384,-0.001 L12.384,-0.001 ZM12.793,29.999 L12.395,29.999 L12.395,29.248 L12.395,28.904 C12.899,28.892 13.354,28.679 13.686,28.339 L13.686,28.339 C13.973,28.044 14.169,27.657 14.224,27.224 L14.562,27.224 C14.562,27.825 14.251,28.304 13.804,28.678 L13.802,28.679 C13.522,28.901 13.178,29.072 12.793,29.172 L12.793,29.999 L12.793,29.999 ZM13.468,28.344 L10.950,25.827 C10.692,25.743 10.406,25.754 10.129,25.848 C9.763,25.972 9.591,26.108 9.392,26.420 L9.391,26.419 L6.511,26.419 L6.511,26.714 L3.247,26.716 L3.247,26.716 L3.247,26.716 L3.249,23.453 L3.544,23.453 L3.544,20.573 L3.543,20.571 C3.855,20.372 3.991,20.201 4.115,19.835 C4.209,19.557 4.220,19.271 4.136,19.013 L2.234,17.111 L2.098,16.975 L2.515,16.558 L2.651,16.694 L4.123,18.166 C4.190,18.058 4.169,17.979 4.134,17.883 C4.102,17.792 4.183,17.648 4.215,17.677 C4.432,17.870 4.801,18.057 4.773,18.346 C4.763,18.448 4.656,18.535 4.530,18.574 L11.390,25.433 C11.428,25.306 11.516,25.201 11.617,25.191 C11.906,25.162 12.093,25.532 12.286,25.748 C12.315,25.780 12.171,25.861 12.081,25.829 C11.984,25.794 11.905,25.773 11.797,25.841 L13.848,27.892 C13.775,28.017 13.686,28.132 13.586,28.234 L13.586,28.234 C13.548,28.273 13.509,28.309 13.468,28.344 L13.468,28.344 ZM2.021,12.995 L3.989,11.033 C3.973,11.100 3.954,11.167 3.931,11.232 C3.841,11.488 3.694,11.726 3.499,11.926 L4.055,11.801 L2.438,13.412 L2.021,12.995 L2.021,12.995 ZM1.972,13.887 L0.906,14.949 L1.997,16.040 L1.579,16.459 L0.073,14.950 L1.551,13.472 L1.972,13.887 L1.972,13.887 ZM4.115,10.064 C3.991,9.698 3.855,9.527 3.543,9.327 L3.544,9.326 L3.544,6.446 L3.249,6.446 L3.247,3.182 L3.247,3.182 L3.247,3.182 L6.511,3.185 L6.511,3.480 L9.391,3.480 L9.392,3.478 C9.591,3.791 9.763,3.926 10.129,4.050 C10.384,4.138 10.647,4.154 10.888,4.090 C11.033,4.072 11.175,4.038 11.311,3.991 C11.493,3.927 11.665,3.836 11.822,3.722 C11.900,3.666 11.792,3.907 11.801,4.054 L11.797,4.058 C11.905,4.125 11.984,4.104 12.081,4.070 C12.171,4.038 12.315,4.119 12.286,4.150 C12.093,4.367 11.906,4.737 11.617,4.708 C11.516,4.698 11.428,4.592 11.390,4.466 L11.388,4.468 L11.514,4.219 C11.270,4.355 11.003,4.434 10.731,4.454 C10.674,4.459 10.616,4.461 10.558,4.459 C10.404,4.451 10.248,4.420 10.095,4.368 C9.915,4.307 9.738,4.216 9.571,4.100 L9.578,4.106 C9.828,4.325 9.991,4.645 10.020,5.002 L10.452,4.570 C10.548,4.577 10.644,4.577 10.740,4.569 C10.932,4.555 11.122,4.513 11.303,4.444 C11.380,4.415 11.372,4.417 11.352,4.503 L4.542,11.314 C4.466,11.332 4.465,11.336 4.493,11.263 C4.562,11.081 4.604,10.891 4.619,10.699 C4.626,10.601 4.626,10.502 4.619,10.403 L5.067,9.956 C4.710,9.927 4.390,9.764 4.170,9.513 L4.164,9.507 C4.281,9.674 4.371,9.850 4.432,10.031 C4.441,10.057 4.450,10.084 4.457,10.110 C4.503,10.302 4.518,10.497 4.504,10.691 C4.483,10.962 4.404,11.229 4.268,11.473 C4.418,11.397 4.741,11.224 4.773,11.553 C4.824,12.083 4.415,12.231 4.136,12.272 C4.161,12.223 4.165,11.770 4.123,11.702 C4.053,11.700 3.973,11.744 3.771,11.782 C3.885,11.624 3.976,11.452 4.040,11.270 C4.172,10.895 4.243,10.441 4.115,10.064 L4.115,10.064 ZM11.085,3.937 L13.458,1.564 C13.502,1.601 13.545,1.641 13.586,1.683 L13.586,1.683 C13.683,1.782 13.769,1.893 13.841,2.014 L11.839,4.017 L11.966,3.450 C11.767,3.645 11.529,3.791 11.273,3.882 C11.211,3.904 11.148,3.922 11.085,3.937 L11.085,3.937 ZM10.562,25.439 L10.020,24.897 C9.991,25.253 9.828,25.574 9.578,25.793 L9.571,25.799 C9.738,25.682 9.915,25.592 10.095,25.531 C10.250,25.478 10.407,25.447 10.562,25.439 L10.562,25.439 ZM9.710,24.587 L8.900,23.777 C8.856,23.768 8.811,23.763 8.765,23.759 C8.481,23.740 8.216,23.839 8.018,24.014 L7.934,24.097 L7.741,23.862 L7.742,23.862 L7.741,23.860 C7.942,23.659 8.029,23.207 8.029,22.942 C8.029,22.930 8.029,22.918 8.028,22.905 L7.058,21.935 C7.046,21.934 7.033,21.934 7.020,21.934 C6.756,21.934 6.304,22.021 6.103,22.223 L6.101,22.221 L6.101,22.222 L5.867,22.030 L5.950,21.945 C6.124,21.747 6.222,21.483 6.204,21.198 C6.201,21.152 6.195,21.107 6.186,21.063 L5.377,20.253 C5.290,20.236 5.200,20.230 5.107,20.236 C4.823,20.254 4.573,20.387 4.399,20.585 C4.286,20.713 4.205,20.869 4.167,21.041 C4.114,21.282 4.189,21.367 3.968,21.429 L3.831,21.562 L3.831,23.699 L3.544,23.699 L3.544,26.419 L3.545,26.419 L6.264,26.419 L6.264,26.132 L8.402,26.132 L8.534,25.995 C8.596,25.774 8.681,25.850 8.922,25.795 C9.093,25.758 9.250,25.676 9.378,25.564 C9.577,25.390 9.709,25.140 9.727,24.856 C9.733,24.763 9.727,24.673 9.710,24.587 L9.710,24.587 ZM8.590,23.467 L8.353,23.230 C8.337,23.329 8.309,23.432 8.271,23.533 C8.373,23.498 8.480,23.476 8.590,23.467 L8.590,23.467 ZM6.733,21.610 L6.496,21.373 C6.488,21.484 6.465,21.590 6.431,21.692 C6.532,21.654 6.634,21.626 6.733,21.610 L6.733,21.610 ZM5.067,19.943 L4.524,19.401 C4.516,19.556 4.485,19.713 4.432,19.869 C4.371,20.048 4.281,20.225 4.164,20.391 L4.170,20.385 C4.390,20.135 4.710,19.972 5.067,19.943 L5.067,19.943 ZM5.377,9.645 L6.186,8.836 C6.195,8.792 6.201,8.747 6.204,8.701 C6.222,8.416 6.124,8.152 5.950,7.953 L5.867,7.869 L6.101,7.677 L6.101,7.677 L6.103,7.676 C6.304,7.877 6.756,7.964 7.020,7.964 C7.033,7.964 7.046,7.964 7.058,7.963 L8.028,6.994 C8.029,6.981 8.029,6.969 8.029,6.956 C8.029,6.692 7.942,6.240 7.741,6.038 L7.742,6.037 L7.741,6.037 L7.934,5.802 L8.018,5.886 C8.216,6.059 8.481,6.158 8.765,6.140 C8.811,6.136 8.856,6.130 8.900,6.122 L9.710,5.312 C9.727,5.226 9.733,5.135 9.727,5.043 C9.709,4.758 9.577,4.509 9.378,4.334 C9.250,4.222 9.093,4.141 8.922,4.103 C8.681,4.050 8.596,4.125 8.534,3.904 L8.402,3.767 L6.264,3.767 L6.264,3.480 L3.545,3.479 L3.544,3.480 L3.544,6.199 L3.831,6.199 L3.831,8.337 L3.968,8.470 C4.189,8.532 4.114,8.617 4.167,8.857 C4.205,9.029 4.286,9.185 4.399,9.314 C4.573,9.512 4.823,9.644 5.107,9.663 C5.200,9.669 5.290,9.663 5.377,9.645 L5.377,9.645 ZM6.496,8.525 L6.733,8.289 C6.634,8.272 6.532,8.244 6.431,8.207 C6.465,8.308 6.488,8.415 6.496,8.525 L6.496,8.525 ZM8.353,6.669 L8.590,6.432 C8.480,6.423 8.373,6.400 8.271,6.366 C8.309,6.467 8.337,6.570 8.353,6.669 L8.353,6.669 ZM0.201,0.214 C0.318,0.330 0.685,0.958 0.729,1.115 C0.804,1.389 0.815,1.534 1.038,1.573 C1.240,1.607 1.447,1.521 1.487,1.504 L1.489,1.506 L1.490,1.502 L1.493,1.501 L1.492,1.499 C1.509,1.460 1.595,1.252 1.560,1.051 C1.521,0.828 1.376,0.818 1.102,0.742 C0.832,0.666 0.221,0.228 0.202,0.214 L0.201,0.214 L0.201,0.214 ZM4.801,8.721 C4.435,8.721 4.138,8.424 4.138,8.058 C4.138,8.012 4.143,7.968 4.151,7.925 L4.151,5.836 L3.857,5.836 L3.857,3.794 L4.058,3.993 L3.859,3.792 L5.900,3.792 L5.900,4.087 L7.990,4.087 C8.032,4.078 8.077,4.073 8.122,4.073 C8.488,4.073 8.786,4.370 8.785,4.736 C8.785,5.103 8.488,5.400 8.122,5.400 C7.756,5.400 7.459,5.103 7.459,4.736 C7.459,4.603 7.499,4.478 7.567,4.374 L5.653,4.374 L5.653,4.087 L4.151,4.087 L4.151,5.589 L4.439,5.589 L4.439,7.502 C4.543,7.434 4.667,7.395 4.801,7.395 C5.167,7.395 5.464,7.692 5.464,8.058 C5.464,8.424 5.167,8.721 4.801,8.721 L4.801,8.721 ZM9.471,4.026 C9.297,3.921 9.140,3.958 8.519,3.767 L9.198,3.767 L9.323,3.899 C9.371,3.944 9.420,3.986 9.471,4.026 L9.471,4.026 ZM5.952,5.888 C5.944,5.785 5.902,5.181 6.014,4.970 C6.138,4.737 6.361,4.518 6.415,4.696 C6.469,4.873 6.265,5.044 6.177,5.242 C6.089,5.440 6.072,5.824 6.072,5.824 C6.072,5.824 6.281,5.063 6.677,4.887 C7.073,4.711 7.423,4.815 7.172,5.027 C6.922,5.238 6.365,5.405 6.148,5.819 C6.459,5.528 7.231,5.113 7.190,5.368 C7.149,5.623 6.435,5.744 6.315,5.817 C6.194,5.888 6.135,5.964 6.135,5.964 C6.135,5.964 6.664,5.658 6.963,5.867 C7.263,6.077 7.000,6.235 6.847,6.225 C6.693,6.215 6.371,6.195 6.371,6.195 C6.371,6.195 7.057,6.286 7.133,6.535 C7.210,6.783 7.450,7.285 7.051,6.974 C6.652,6.662 6.727,6.588 7.038,6.986 C7.350,7.385 6.848,7.145 6.599,7.069 C6.351,6.993 6.260,6.307 6.260,6.307 C6.260,6.307 6.280,6.628 6.290,6.782 C6.300,6.936 6.142,7.199 5.932,6.899 C5.722,6.599 6.029,6.070 6.029,6.070 C6.029,6.070 5.953,6.130 5.881,6.250 C5.809,6.371 5.687,7.084 5.433,7.126 C5.178,7.166 5.592,6.394 5.883,6.083 C5.469,6.300 5.302,6.857 5.091,7.107 C4.879,7.358 4.775,7.009 4.951,6.613 C5.127,6.217 5.888,6.007 5.888,6.007 C5.888,6.007 5.504,6.025 5.307,6.113 C5.108,6.201 4.938,6.405 4.760,6.350 C4.583,6.296 4.802,6.073 5.034,5.950 C5.246,5.837 5.850,5.880 5.952,5.888 L5.952,5.888 ZM4.438,4.374 C4.555,4.490 4.922,5.118 4.965,5.274 C5.041,5.548 5.052,5.694 5.275,5.732 C5.477,5.767 5.684,5.681 5.724,5.664 L5.726,5.666 L5.727,5.662 L5.730,5.661 L5.728,5.659 C5.746,5.620 5.832,5.412 5.797,5.211 C5.758,4.987 5.613,4.977 5.339,4.901 C5.068,4.826 4.458,4.388 4.438,4.374 L4.438,4.374 L4.438,4.374 ZM4.090,9.407 C3.985,9.232 4.023,9.075 3.831,8.454 L3.831,9.133 L3.963,9.258 C4.008,9.306 4.050,9.356 4.090,9.407 L4.090,9.407 ZM4.801,21.178 C4.435,21.178 4.138,21.474 4.138,21.841 C4.138,21.886 4.143,21.931 4.151,21.974 L4.151,24.063 L3.857,24.063 L3.857,26.105 L4.058,25.906 L3.859,26.107 L5.900,26.107 L5.900,25.812 L7.990,25.812 C8.032,25.821 8.077,25.825 8.122,25.825 C8.488,25.825 8.786,25.528 8.785,25.162 C8.785,24.795 8.488,24.499 8.122,24.499 C7.756,24.499 7.459,24.795 7.459,25.162 C7.459,25.296 7.499,25.421 7.567,25.524 L5.653,25.524 L5.653,25.812 L4.151,25.812 L4.151,24.310 L4.439,24.310 L4.439,22.396 C4.543,22.464 4.667,22.504 4.801,22.504 C5.167,22.504 5.464,22.207 5.464,21.841 C5.464,21.474 5.167,21.178 4.801,21.178 L4.801,21.178 ZM9.471,25.873 C9.297,25.978 9.140,25.940 8.519,26.132 L9.198,26.132 L9.323,26.000 C9.371,25.955 9.420,25.913 9.471,25.873 L9.471,25.873 ZM5.952,24.011 C5.944,24.114 5.902,24.717 6.014,24.929 C6.138,25.161 6.361,25.380 6.415,25.203 C6.469,25.025 6.265,24.855 6.177,24.657 C6.089,24.458 6.072,24.075 6.072,24.075 C6.072,24.075 6.281,24.836 6.677,25.012 C7.073,25.188 7.423,25.084 7.172,24.872 C6.922,24.661 6.365,24.494 6.148,24.080 C6.459,24.371 7.231,24.785 7.190,24.530 C7.149,24.276 6.435,24.155 6.315,24.082 C6.194,24.010 6.135,23.935 6.135,23.935 C6.135,23.935 6.664,24.241 6.963,24.032 C7.263,23.821 7.000,23.663 6.847,23.674 C6.693,23.684 6.371,23.703 6.371,23.703 C6.371,23.703 7.057,23.612 7.133,23.363 C7.210,23.115 7.450,22.614 7.051,22.925 C6.652,23.237 6.727,23.311 7.038,22.912 C7.350,22.514 6.848,22.754 6.599,22.830 C6.351,22.906 6.260,23.592 6.260,23.592 C6.260,23.592 6.280,23.270 6.290,23.117 C6.300,22.963 6.142,22.700 5.932,23.001 C5.722,23.300 6.029,23.828 6.029,23.828 C6.029,23.828 5.953,23.769 5.881,23.649 C5.809,23.528 5.687,22.814 5.433,22.773 C5.178,22.732 5.592,23.504 5.883,23.816 C5.469,23.599 5.302,23.041 5.091,22.791 C4.879,22.541 4.775,22.890 4.951,23.286 C5.127,23.682 5.888,23.892 5.888,23.892 C5.888,23.892 5.504,23.874 5.307,23.786 C5.108,23.699 4.938,23.494 4.760,23.548 C4.583,23.602 4.802,23.826 5.034,23.949 C5.246,24.061 5.850,24.019 5.952,24.011 L5.952,24.011 ZM4.438,25.525 C4.555,25.409 4.922,24.781 4.965,24.624 C5.041,24.350 5.052,24.205 5.275,24.166 C5.477,24.132 5.684,24.217 5.724,24.235 L5.726,24.233 L5.727,24.237 L5.730,24.237 L5.728,24.240 C5.746,24.279 5.832,24.487 5.797,24.688 C5.758,24.912 5.613,24.922 5.339,24.998 C5.068,25.073 4.458,25.511 4.438,25.525 L4.438,25.525 L4.438,25.525 ZM4.090,20.492 C3.985,20.666 4.023,20.823 3.831,21.445 L3.831,20.766 L3.963,20.640 C4.008,20.593 4.050,20.543 4.090,20.492 L4.090,20.492 ZM0.212,29.718 C0.329,29.602 0.696,28.974 0.739,28.818 C0.815,28.543 0.826,28.398 1.049,28.360 C1.251,28.324 1.459,28.410 1.498,28.428 L1.500,28.426 L1.501,28.430 L1.504,28.431 L1.503,28.433 C1.520,28.472 1.606,28.680 1.571,28.881 C1.532,29.104 1.387,29.115 1.113,29.191 C0.842,29.266 0.232,29.704 0.213,29.718 L0.212,29.718 L0.212,29.718 ZM1.685,28.377 C1.746,28.377 1.795,28.328 1.795,28.266 C1.795,28.205 1.746,28.156 1.685,28.156 C1.624,28.156 1.574,28.205 1.574,28.266 C1.574,28.328 1.624,28.377 1.685,28.377 L1.685,28.377 ZM2.331,27.621 C2.293,27.659 2.172,27.866 2.158,27.918 C2.133,28.008 2.129,28.056 2.055,28.069 C1.989,28.080 1.921,28.052 1.908,28.046 L1.907,28.046 L1.907,28.046 L1.905,28.045 L1.906,28.044 C1.900,28.032 1.872,27.963 1.883,27.897 C1.896,27.823 1.944,27.820 2.034,27.794 C2.124,27.770 2.325,27.625 2.331,27.621 L2.331,27.621 L2.331,27.621 ZM14.580,10.088 L14.367,10.376 L14.570,10.866 L14.782,10.578 L14.580,10.088 L14.580,10.088 ZM14.319,10.441 L14.056,10.797 L14.259,11.286 L14.521,10.931 L14.319,10.441 L14.319,10.441 ZM14.008,10.862 L13.745,11.217 L13.948,11.707 L14.211,11.351 L14.008,10.862 L14.008,10.862 ZM13.772,11.464 L13.755,11.967 L13.900,11.772 L13.772,11.464 L13.772,11.464 ZM14.817,10.661 L14.605,10.950 L14.780,11.374 L14.962,11.012 L14.817,10.661 L14.817,10.661 ZM14.557,11.016 L14.295,11.372 L14.515,11.904 L14.739,11.457 L14.557,11.016 L14.557,11.016 ZM14.247,11.438 L13.985,11.795 L14.052,11.957 L14.217,11.910 L14.203,12.323 L14.249,12.435 L14.474,11.987 L14.247,11.438 L14.247,11.438 ZM13.937,11.861 L13.817,12.024 L13.984,11.976 L13.937,11.861 L13.937,11.861 ZM14.566,12.209 L14.354,12.687 L14.562,13.190 L14.681,13.192 L14.883,12.975 C14.765,12.689 14.683,12.492 14.566,12.209 L14.566,12.209 ZM14.743,12.456 L14.955,11.978 L14.817,11.644 L14.605,12.121 L14.743,12.456 L14.743,12.456 ZM14.315,12.774 L14.134,13.180 L14.486,13.188 L14.315,12.774 L14.315,12.774 ZM13.487,8.959 L13.809,9.210 L13.811,9.214 L13.548,9.570 L13.366,9.130 L13.487,8.959 L13.487,8.959 ZM13.500,9.634 L13.237,9.989 L13.059,9.559 L13.318,9.195 L13.500,9.634 L13.500,9.634 ZM13.189,10.055 L12.938,10.395 L12.763,9.974 L13.012,9.626 L13.189,10.055 L13.189,10.055 ZM12.890,10.461 L12.774,10.616 L12.471,10.385 L12.716,10.041 L12.890,10.461 L12.890,10.461 ZM13.924,9.306 L14.210,9.546 L14.090,9.707 L13.924,9.306 L13.924,9.306 ZM14.042,9.772 L13.779,10.128 L13.585,9.659 L13.848,9.304 L14.042,9.772 L14.042,9.772 ZM13.731,10.193 L13.469,10.548 L13.275,10.080 L13.537,9.725 L13.731,10.193 L13.731,10.193 ZM13.420,10.613 L13.186,10.930 L13.147,10.900 L12.975,10.485 L13.226,10.145 L13.420,10.613 L13.420,10.613 ZM13.037,10.816 L12.841,10.667 L12.927,10.550 L13.037,10.816 L13.037,10.816 ZM14.274,9.599 L14.432,9.732 L14.543,9.999 L14.330,10.287 L14.127,9.797 L14.274,9.599 L14.274,9.599 ZM14.548,9.829 L14.622,9.891 L14.591,9.933 L14.548,9.829 L14.548,9.829 ZM14.282,10.351 L14.019,10.707 L13.816,10.218 L14.079,9.862 L14.282,10.351 L14.282,10.351 ZM13.971,10.772 L13.708,11.127 L13.506,10.638 L13.768,10.283 L13.971,10.772 L13.971,10.772 ZM13.660,11.193 L13.613,11.256 L13.252,10.981 L13.457,10.703 L13.660,11.193 L13.660,11.193 ZM13.759,12.041 L13.753,12.042 L13.753,12.036 L13.759,12.041 L13.759,12.041 ZM12.996,5.297 C12.418,5.438 11.736,6.061 11.667,6.933 L11.910,6.907 C11.912,6.453 12.443,5.898 12.907,5.886 C12.907,5.886 13.018,5.296 12.996,5.297 L12.996,5.297 ZM13.186,8.287 C13.217,8.133 13.095,7.798 13.129,7.744 C13.237,7.571 13.290,7.318 13.216,7.134 C13.197,7.085 13.215,7.458 13.054,7.633 C13.030,7.658 12.948,7.930 12.986,8.195 C12.707,8.303 12.473,8.484 12.457,8.532 C12.385,8.747 12.024,8.944 12.081,8.931 C12.295,8.881 12.502,8.700 12.604,8.523 C12.646,8.451 13.043,8.389 13.186,8.287 L13.186,8.287 ZM14.580,19.829 L14.367,19.541 L14.570,19.052 L14.782,19.339 L14.580,19.829 L14.580,19.829 ZM14.319,19.476 L14.056,19.120 L14.259,18.631 L14.521,18.987 L14.319,19.476 L14.319,19.476 ZM14.008,19.055 L13.745,18.700 L13.948,18.211 L14.211,18.565 L14.008,19.055 L14.008,19.055 ZM13.697,18.635 L13.680,18.611 L13.720,18.580 L13.697,18.635 L13.697,18.635 ZM13.772,18.454 L13.755,17.950 L13.900,18.145 L13.772,18.454 L13.772,18.454 ZM14.817,19.257 L14.605,18.967 L14.780,18.542 L14.962,18.905 L14.817,19.257 L14.817,19.257 ZM14.557,18.902 L14.295,18.545 L14.515,18.013 L14.739,18.460 L14.557,18.902 L14.557,18.902 ZM14.247,18.479 L13.985,18.122 L14.052,17.960 L14.217,18.007 L14.203,17.595 L14.249,17.483 L14.474,17.931 L14.247,18.479 L14.247,18.479 ZM13.937,18.056 L13.817,17.893 L13.984,17.941 L13.937,18.056 L13.937,18.056 ZM14.198,17.426 L14.196,17.376 L14.208,17.400 L14.198,17.426 L14.198,17.426 ZM14.721,17.333 L14.687,17.333 L14.704,17.373 L14.566,17.708 L14.354,17.231 L14.562,16.728 L14.681,16.725 L14.883,16.942 L14.721,17.333 L14.721,17.333 ZM14.743,17.461 L14.955,17.939 L14.817,18.273 L14.605,17.796 L14.743,17.461 L14.743,17.461 ZM14.315,17.143 L14.134,16.737 L14.486,16.730 L14.315,17.143 L14.315,17.143 ZM13.487,20.959 L13.809,20.708 L13.811,20.703 L13.548,20.348 L13.366,20.788 L13.487,20.959 L13.487,20.959 ZM13.500,20.283 L13.237,19.927 L13.059,20.358 L13.318,20.721 L13.500,20.283 L13.500,20.283 ZM13.189,19.862 L12.938,19.522 L12.763,19.943 L13.012,20.291 L13.189,19.862 L13.189,19.862 ZM12.890,19.457 L12.774,19.301 L12.471,19.533 L12.716,19.876 L12.890,19.457 L12.890,19.457 ZM13.924,20.611 L14.210,20.372 L14.090,20.210 L13.924,20.611 L13.924,20.611 ZM14.042,20.145 L13.779,19.789 L13.585,20.258 L13.848,20.613 L14.042,20.145 L14.042,20.145 ZM13.731,19.725 L13.469,19.369 L13.275,19.837 L13.537,20.192 L13.731,19.725 L13.731,19.725 ZM13.420,19.304 L13.186,18.987 L13.147,19.017 L12.975,19.432 L13.226,19.773 L13.420,19.304 L13.420,19.304 ZM13.037,19.101 L12.841,19.251 L12.927,19.367 L13.037,19.101 L13.037,19.101 ZM14.274,20.318 L14.432,20.185 L14.543,19.919 L14.330,19.631 L14.127,20.120 L14.274,20.318 L14.274,20.318 ZM14.548,20.089 L14.622,20.026 L14.591,19.984 L14.548,20.089 L14.548,20.089 ZM14.282,19.566 L14.019,19.210 L13.816,19.699 L14.079,20.055 L14.282,19.566 L14.282,19.566 ZM13.971,19.145 L13.708,18.790 L13.506,19.279 L13.768,19.635 L13.971,19.145 L13.971,19.145 ZM13.660,18.725 L13.613,18.661 L13.252,18.936 L13.457,19.214 L13.660,18.725 L13.660,18.725 ZM13.759,17.877 L13.753,17.875 L13.753,17.880 L13.759,17.877 L13.759,17.877 ZM12.996,24.621 C12.418,24.479 11.736,23.857 11.667,22.984 L11.910,23.011 C11.912,23.464 12.443,24.019 12.907,24.031 C12.907,24.031 13.018,24.621 12.996,24.621 L12.996,24.621 ZM13.186,21.631 C13.217,21.785 13.095,22.119 13.129,22.173 C13.237,22.346 13.290,22.600 13.216,22.783 C13.197,22.832 13.215,22.459 13.054,22.284 C13.030,22.260 12.948,21.988 12.986,21.723 C12.707,21.614 12.473,21.433 12.457,21.387 C12.385,21.170 12.024,20.973 12.081,20.987 C12.295,21.036 12.502,21.218 12.604,21.394 C12.646,21.466 13.043,21.528 13.186,21.631 L13.186,21.631 ZM5.610,14.949 C5.537,15.148 5.456,15.363 5.535,15.504 C5.737,15.863 5.991,15.795 5.933,16.003 C5.918,16.058 5.454,15.827 5.391,15.587 C5.323,15.326 5.402,15.127 5.461,14.965 L5.467,14.949 L5.461,14.934 C5.402,14.772 5.323,14.573 5.391,14.312 C5.454,14.073 5.918,13.841 5.933,13.896 C5.991,14.103 5.737,14.036 5.535,14.395 C5.456,14.535 5.537,14.750 5.610,14.949 L5.610,14.949 ZM2.204,14.949 L2.223,14.939 C2.329,14.886 2.620,14.747 2.777,14.761 C2.947,14.775 3.437,14.913 3.550,14.946 L3.556,14.946 L3.559,14.338 C3.559,14.338 3.794,14.252 3.863,14.460 C3.995,14.855 4.263,14.593 4.342,14.939 L4.344,14.949 L4.342,14.960 C4.263,15.306 3.995,15.044 3.863,15.439 C3.794,15.646 3.559,15.561 3.559,15.561 C3.558,15.359 3.554,15.154 3.556,14.953 L3.550,14.953 C3.437,14.986 2.947,15.123 2.777,15.138 C2.620,15.151 2.329,15.013 2.223,14.960 L2.204,14.949 L2.204,14.949 ZM4.591,14.949 C4.526,15.054 4.151,15.674 4.240,15.866 C4.389,16.189 4.800,15.576 5.097,15.550 C4.728,15.784 4.467,17.063 5.316,16.185 C6.537,17.644 6.056,15.736 6.123,15.717 C6.437,16.104 6.986,15.778 6.200,14.949 C6.987,14.109 6.433,13.800 6.123,14.181 C6.056,14.163 6.537,12.255 5.316,13.714 C4.467,12.835 4.728,14.115 5.097,14.349 C4.800,14.322 4.389,13.709 4.240,14.032 C4.151,14.224 4.526,14.845 4.591,14.949 L4.591,14.949 ZM9.593,13.433 L9.843,13.755 L9.848,13.756 L10.203,13.494 L9.763,13.312 L9.593,13.433 L9.593,13.433 ZM10.268,13.446 L10.623,13.183 L10.193,13.004 L9.830,13.264 L10.268,13.446 L10.268,13.446 ZM10.689,13.135 L11.029,12.883 L10.608,12.709 L10.260,12.958 L10.689,13.135 L10.689,13.135 ZM11.094,12.835 L11.250,12.720 L11.018,12.416 L10.675,12.661 L11.094,12.835 L11.094,12.835 ZM9.940,13.870 L10.179,14.155 L10.341,14.036 L9.940,13.870 L9.940,13.870 ZM10.406,13.988 L10.761,13.725 L10.293,13.531 L9.938,13.794 L10.406,13.988 L10.406,13.988 ZM10.827,13.677 L11.182,13.414 L10.713,13.220 L10.358,13.483 L10.827,13.677 L10.827,13.677 ZM11.247,13.366 L11.564,13.132 L11.534,13.092 L11.119,12.920 L10.779,13.172 L11.247,13.366 L11.247,13.366 ZM11.450,12.982 L11.300,12.786 L11.184,12.872 L11.450,12.982 L11.450,12.982 ZM10.233,14.219 L10.366,14.378 L10.632,14.489 L10.920,14.276 L10.431,14.073 L10.233,14.219 L10.233,14.219 ZM10.462,14.493 L10.525,14.568 L10.567,14.536 L10.462,14.493 L10.462,14.493 ZM10.985,14.227 L11.341,13.965 L10.851,13.762 L10.496,14.025 L10.985,14.227 L10.985,14.227 ZM11.406,13.916 L11.761,13.654 L11.272,13.452 L10.916,13.714 L11.406,13.916 L11.406,13.916 ZM11.826,13.606 L11.890,13.559 L11.614,13.198 L11.337,13.403 L11.826,13.606 L11.826,13.606 ZM10.578,14.631 L10.844,14.949 L10.578,15.267 L10.657,15.325 L11.146,15.122 L10.912,14.949 L11.146,14.776 L10.657,14.574 L10.578,14.631 L10.578,14.631 ZM10.722,15.373 L11.010,15.586 L11.499,15.384 L11.211,15.171 L10.722,15.373 L10.722,15.373 ZM11.075,15.634 L11.430,15.897 L11.920,15.694 L11.564,15.431 L11.075,15.634 L11.075,15.634 ZM11.496,15.945 L11.851,16.208 L12.340,16.006 L11.985,15.742 L11.496,15.945 L11.496,15.945 ZM11.916,16.256 L11.940,16.273 L11.971,16.233 L11.916,16.256 L11.916,16.256 ZM12.097,16.181 L12.601,16.198 L12.406,16.053 L12.097,16.181 L12.097,16.181 ZM11.211,14.728 L11.499,14.515 L11.010,14.313 L10.722,14.525 L11.211,14.728 L11.211,14.728 ZM11.564,14.467 L11.920,14.204 L11.431,14.002 L11.075,14.264 L11.564,14.467 L11.564,14.467 ZM11.985,14.156 L12.340,13.894 L11.851,13.691 L11.496,13.954 L11.985,14.156 L11.985,14.156 ZM12.406,13.845 L12.601,13.701 L12.097,13.717 L12.406,13.845 L12.406,13.845 ZM11.971,13.666 L11.940,13.625 L11.916,13.643 L11.971,13.666 L11.971,13.666 ZM11.562,14.949 L11.563,14.949 L11.236,14.813 L11.046,14.954 L11.229,15.088 L11.563,14.950 L11.562,14.949 L11.562,14.949 ZM11.646,14.908 L12.008,14.726 L11.589,14.552 L11.301,14.765 L11.646,14.908 L11.646,14.908 ZM12.090,14.685 L12.538,14.460 L12.010,14.242 L11.654,14.504 L12.090,14.685 L12.090,14.685 ZM12.620,14.419 L13.068,14.195 L12.957,14.149 L12.543,14.163 L12.591,13.997 L12.430,13.931 L12.075,14.193 L12.620,14.419 L12.620,14.419 ZM13.150,14.154 L13.175,14.141 L13.125,14.143 L13.150,14.154 L13.150,14.154 ZM12.610,13.930 L12.657,13.762 L12.495,13.882 L12.610,13.930 L12.610,13.930 ZM11.295,15.137 L11.584,15.349 L12.008,15.172 L11.645,14.991 L11.295,15.137 L11.295,15.137 ZM11.649,15.396 L12.007,15.659 L12.538,15.438 L12.090,15.214 L11.649,15.396 L11.649,15.396 ZM12.072,15.707 L12.429,15.968 L12.591,15.901 L12.543,15.736 L12.957,15.750 L13.068,15.704 L12.620,15.480 L12.072,15.707 L12.072,15.707 ZM12.495,16.016 L12.657,16.136 L12.610,15.969 L12.495,16.016 L12.495,16.016 ZM13.125,15.756 L13.175,15.757 L13.150,15.745 L13.125,15.756 L13.125,15.756 ZM12.503,14.949 L12.525,14.940 L12.190,14.801 L11.890,14.934 L11.889,14.934 L11.871,14.943 L11.823,14.965 L11.890,14.965 L11.891,14.965 L12.190,15.097 L12.524,14.959 L12.503,14.949 L12.503,14.949 ZM12.612,14.901 L13.090,14.689 L12.755,14.550 L12.278,14.762 L12.612,14.901 L12.612,14.901 ZM13.609,14.829 L13.825,14.627 L13.823,14.508 L13.320,14.299 L12.843,14.512 C13.098,14.617 13.354,14.723 13.609,14.829 L13.609,14.829 ZM13.218,14.742 L13.218,15.157 L13.553,15.018 L13.496,14.965 L13.496,14.934 L13.218,14.742 L13.218,14.742 ZM12.843,15.387 L13.320,15.599 L13.823,15.391 L13.825,15.272 L13.609,15.070 C13.323,15.189 13.126,15.270 12.843,15.387 L12.843,15.387 ZM13.090,15.210 L12.612,14.998 L12.278,15.137 L12.755,15.349 L13.090,15.210 L13.090,15.210 ZM13.821,14.432 L13.814,14.080 L13.408,14.260 L13.821,14.432 L13.821,14.432 ZM13.408,15.639 L13.814,15.820 L13.821,15.468 L13.408,15.639 L13.408,15.639 ZM12.674,13.704 L12.676,13.698 L12.670,13.698 L12.674,13.704 L12.674,13.704 ZM5.931,12.942 C6.072,12.363 6.694,11.682 7.567,11.612 L7.540,11.856 C7.087,11.857 6.532,12.388 6.520,12.852 C6.520,12.852 5.930,12.964 5.931,12.942 L5.931,12.942 ZM9.314,14.083 L10.115,14.949 L9.457,15.638 C8.398,16.300 9.054,15.357 8.195,14.949 C9.009,14.420 8.364,13.831 9.314,14.083 L9.314,14.083 ZM10.551,14.962 L10.552,14.945 L9.301,13.577 C9.345,13.496 9.384,13.420 9.395,13.428 C9.360,13.507 9.309,13.057 9.464,13.027 C10.449,12.844 10.468,12.225 9.788,12.248 C9.711,12.251 11.293,10.883 9.584,11.436 C9.289,10.398 9.212,11.854 8.541,12.229 C9.078,11.177 9.251,10.529 8.920,10.599 C8.629,10.662 8.502,11.151 8.430,11.264 C8.353,11.008 8.339,10.320 7.927,10.367 C7.422,10.425 8.050,11.269 7.988,11.246 C7.231,10.973 7.525,11.384 7.946,11.502 C7.847,11.475 7.747,11.484 7.564,11.580 C7.268,11.736 8.024,12.282 8.332,12.286 C8.281,12.335 6.322,12.365 7.326,12.849 C5.961,14.140 7.831,13.417 7.802,13.497 C7.331,14.808 7.797,14.331 8.370,13.823 C8.282,14.181 8.332,14.675 7.869,14.780 C7.405,14.884 6.660,14.626 6.660,14.626 C6.660,14.626 6.717,14.724 6.705,14.836 C6.701,14.873 6.684,14.913 6.671,14.949 C6.684,14.986 6.701,15.025 6.705,15.064 C6.717,15.175 6.660,15.272 6.660,15.272 C6.660,15.272 7.405,15.014 7.869,15.118 C8.332,15.223 8.282,15.718 8.370,16.075 C7.797,15.568 7.331,15.090 7.802,16.402 C7.831,16.482 5.961,15.759 7.326,17.050 C6.322,17.533 8.281,17.564 8.332,17.612 C8.024,17.616 7.268,18.163 7.564,18.318 C7.747,18.414 7.847,18.423 7.946,18.397 C7.525,18.516 7.231,18.926 7.988,18.653 C8.050,18.630 7.422,19.474 7.927,19.532 C8.339,19.578 8.353,18.891 8.430,18.634 C8.502,18.747 8.629,19.237 8.920,19.299 C9.251,19.370 9.078,18.722 8.541,17.669 C9.212,18.044 9.289,19.500 9.584,18.463 C11.293,19.016 9.711,17.648 9.788,17.651 C10.468,17.672 10.449,17.056 9.464,16.871 C9.309,16.842 9.360,16.392 9.395,16.470 C9.384,16.479 9.345,16.403 9.301,16.322 L10.551,14.962 L10.551,14.962 ZM8.920,13.132 C8.767,13.162 8.432,13.040 8.378,13.074 C8.204,13.182 7.951,13.236 7.768,13.162 C7.718,13.142 8.092,13.161 8.266,12.999 C8.291,12.976 8.563,12.894 8.828,12.932 C8.936,12.653 9.118,12.419 9.165,12.403 C9.381,12.330 9.578,11.970 9.564,12.027 C9.514,12.240 9.333,12.448 9.157,12.550 C9.085,12.592 9.023,12.989 8.920,13.132 L8.920,13.132 ZM9.593,16.465 L9.843,16.144 L9.848,16.142 L10.203,16.405 L9.763,16.587 L9.593,16.465 L9.593,16.465 ZM10.268,16.453 L10.623,16.716 L10.193,16.894 L9.830,16.635 L10.268,16.453 L10.268,16.453 ZM10.689,16.764 L11.029,17.016 L10.608,17.190 L10.260,16.941 L10.689,16.764 L10.689,16.764 ZM11.094,17.063 L11.250,17.179 L11.018,17.482 L10.675,17.238 L11.094,17.063 L11.094,17.063 ZM9.940,16.029 L10.179,15.744 L10.341,15.863 L9.940,16.029 L9.940,16.029 ZM10.406,15.911 L10.761,16.174 L10.293,16.368 L9.938,16.106 L10.406,15.911 L10.406,15.911 ZM10.827,16.222 L11.182,16.485 L10.713,16.679 L10.358,16.416 L10.827,16.222 L10.827,16.222 ZM11.247,16.532 L11.564,16.767 L11.534,16.806 L11.119,16.978 L10.779,16.726 L11.247,16.532 L11.247,16.532 ZM11.450,16.916 L11.300,17.112 L11.184,17.026 L11.450,16.916 L11.450,16.916 ZM10.233,15.680 L10.366,15.521 L10.632,15.410 L10.920,15.623 L10.431,15.826 L10.233,15.680 L10.233,15.680 ZM10.462,15.406 L10.525,15.331 L10.567,15.362 L10.462,15.406 L10.462,15.406 ZM10.985,15.671 L11.341,15.934 L10.851,16.136 L10.496,15.874 L10.985,15.671 L10.985,15.671 ZM11.406,15.982 L11.761,16.245 L11.272,16.447 L10.916,16.185 L11.406,15.982 L11.406,15.982 ZM11.826,16.293 L11.890,16.340 L11.614,16.701 L11.337,16.496 L11.826,16.293 L11.826,16.293 ZM12.674,16.194 L12.676,16.200 L12.670,16.200 L12.674,16.194 L12.674,16.194 ZM5.931,16.957 C6.072,17.535 6.694,18.217 7.567,18.286 L7.540,18.043 C7.087,18.041 6.532,17.510 6.520,17.046 C6.520,17.046 5.930,16.935 5.931,16.957 L5.931,16.957 ZM8.920,16.767 C8.767,16.737 8.432,16.858 8.378,16.825 C8.204,16.716 7.951,16.663 7.768,16.737 C7.718,16.756 8.092,16.738 8.266,16.900 C8.291,16.923 8.563,17.005 8.828,16.967 C8.936,17.246 9.118,17.480 9.165,17.496 C9.381,17.568 9.578,17.929 9.564,17.872 C9.514,17.659 9.333,17.451 9.157,17.349 C9.085,17.307 9.023,16.910 8.920,16.767 L8.920,16.767 ZM1.674,1.555 C1.735,1.555 1.784,1.605 1.784,1.665 C1.784,1.727 1.735,1.777 1.674,1.777 C1.613,1.777 1.563,1.727 1.563,1.665 C1.563,1.605 1.613,1.555 1.674,1.555 L1.674,1.555 ZM2.321,2.312 C2.282,2.273 2.161,2.066 2.147,2.015 C2.122,1.924 2.118,1.876 2.044,1.864 C1.978,1.852 1.910,1.880 1.897,1.886 L1.896,1.885 L1.896,1.887 L1.894,1.887 L1.895,1.887 C1.889,1.901 1.861,1.969 1.872,2.036 C1.885,2.109 1.933,2.113 2.023,2.137 C2.113,2.162 2.314,2.306 2.320,2.312 L2.321,2.312 L2.321,2.312 ZM30.000,11.129 L30.000,11.765 L29.997,11.763 L27.383,14.377 L27.058,14.066 L29.997,11.127 L30.000,11.129 L30.000,11.129 ZM27.325,15.563 L29.997,18.235 L30.000,18.233 L30.000,18.869 L29.997,18.872 L27.000,15.875 L27.325,15.563 L27.325,15.563 ZM17.615,-0.001 L17.217,-0.001 L17.217,0.709 C16.843,0.807 16.506,0.972 16.230,1.185 C16.182,1.223 16.136,1.263 16.091,1.305 C15.942,1.443 15.811,1.600 15.701,1.772 C15.540,2.040 15.449,2.340 15.449,2.658 L15.781,2.658 C15.842,2.239 16.034,1.864 16.314,1.579 L16.314,1.578 C16.648,1.237 17.107,1.022 17.615,1.012 L17.615,0.992 L17.615,0.633 L17.615,-0.001 L17.615,-0.001 ZM17.206,29.999 L17.604,29.999 L17.604,29.248 L17.604,28.904 C17.101,28.892 16.646,28.679 16.314,28.339 L16.314,28.339 C16.026,28.044 15.831,27.657 15.776,27.224 L15.438,27.224 C15.438,27.825 15.749,28.304 16.196,28.678 L16.198,28.679 C16.478,28.901 16.822,29.072 17.206,29.172 L17.206,29.999 L17.206,29.999 ZM16.532,28.344 L19.049,25.827 C19.308,25.743 19.594,25.754 19.871,25.848 C20.237,25.972 20.408,26.108 20.608,26.420 L20.609,26.419 L23.489,26.419 L23.489,26.714 L26.753,26.716 L26.753,26.716 L26.753,26.716 L26.751,23.453 L26.456,23.453 L26.456,20.573 L26.457,20.571 C26.145,20.372 26.009,20.201 25.885,19.835 C25.791,19.557 25.779,19.271 25.864,19.013 L27.765,17.111 L27.902,16.975 L27.485,16.558 L27.349,16.694 L25.877,18.166 C25.810,18.058 25.831,17.979 25.865,17.883 C25.897,17.792 25.817,17.648 25.785,17.677 C25.568,17.870 25.198,18.057 25.227,18.346 C25.237,18.448 25.343,18.535 25.470,18.574 L18.610,25.433 C18.571,25.306 18.484,25.201 18.382,25.191 C18.094,25.162 17.907,25.532 17.713,25.748 C17.685,25.780 17.829,25.861 17.919,25.829 C18.015,25.794 18.094,25.773 18.203,25.841 L16.151,27.892 C16.225,28.017 16.313,28.132 16.413,28.234 L16.414,28.234 C16.452,28.273 16.491,28.309 16.532,28.344 L16.532,28.344 ZM27.979,12.995 L26.011,11.033 C26.026,11.100 26.046,11.167 26.069,11.232 C26.159,11.488 26.305,11.726 26.501,11.926 L25.945,11.801 L27.562,13.412 L27.979,12.995 L27.979,12.995 ZM28.028,13.887 L29.094,14.949 L28.003,16.040 L28.421,16.459 L29.927,14.950 L28.449,13.472 L28.028,13.887 L28.028,13.887 ZM25.885,10.064 C26.009,9.698 26.145,9.527 26.457,9.327 L26.456,9.326 L26.456,6.446 L26.751,6.446 L26.753,3.182 L26.753,3.182 L26.753,3.182 L23.489,3.185 L23.489,3.480 L20.609,3.480 L20.608,3.478 C20.408,3.791 20.237,3.926 19.871,4.050 C19.616,4.138 19.353,4.154 19.111,4.090 C18.967,4.072 18.825,4.038 18.689,3.991 C18.507,3.927 18.335,3.836 18.178,3.722 C18.099,3.666 18.208,3.907 18.198,4.054 L18.203,4.058 C18.094,4.125 18.015,4.104 17.919,4.070 C17.829,4.038 17.685,4.119 17.713,4.150 C17.907,4.367 18.094,4.737 18.382,4.708 C18.484,4.698 18.571,4.592 18.610,4.466 L18.612,4.468 L18.486,4.219 C18.730,4.355 18.997,4.434 19.268,4.454 C19.326,4.459 19.384,4.461 19.442,4.459 C19.596,4.451 19.751,4.420 19.905,4.368 C20.085,4.307 20.261,4.216 20.428,4.100 L20.421,4.106 C20.172,4.325 20.009,4.645 19.980,5.002 L19.548,4.570 C19.452,4.577 19.355,4.577 19.260,4.569 C19.068,4.555 18.878,4.513 18.696,4.444 C18.620,4.415 18.627,4.417 18.648,4.503 L25.458,11.314 C25.533,11.332 25.534,11.336 25.507,11.263 C25.438,11.081 25.395,10.891 25.381,10.699 C25.374,10.601 25.374,10.502 25.381,10.403 L24.933,9.956 C25.290,9.927 25.610,9.764 25.830,9.513 L25.836,9.507 C25.719,9.674 25.629,9.850 25.568,10.031 C25.558,10.057 25.550,10.084 25.542,10.110 C25.497,10.302 25.482,10.497 25.496,10.691 C25.517,10.962 25.596,11.229 25.732,11.473 C25.582,11.397 25.259,11.224 25.227,11.553 C25.176,12.083 25.585,12.231 25.863,12.272 C25.839,12.223 25.835,11.770 25.877,11.702 C25.947,11.700 26.026,11.744 26.228,11.782 C26.115,11.624 26.024,11.452 25.960,11.270 C25.828,10.895 25.757,10.441 25.885,10.064 L25.885,10.064 ZM18.915,3.937 L16.542,1.564 C16.497,1.601 16.455,1.641 16.414,1.683 L16.413,1.683 C16.316,1.782 16.231,1.893 16.158,2.014 L18.161,4.017 L18.034,3.450 C18.233,3.645 18.470,3.791 18.727,3.882 C18.789,3.904 18.852,3.922 18.915,3.937 L18.915,3.937 ZM19.437,25.439 L19.980,24.897 C20.009,25.253 20.172,25.574 20.421,25.793 L20.428,25.799 C20.261,25.682 20.085,25.592 19.905,25.531 C19.750,25.478 19.593,25.447 19.437,25.439 L19.437,25.439 ZM20.290,24.587 L21.099,23.777 C21.143,23.768 21.189,23.763 21.235,23.759 C21.519,23.740 21.784,23.839 21.982,24.014 L22.066,24.097 L22.259,23.862 L22.257,23.862 L22.259,23.860 C22.058,23.659 21.971,23.207 21.971,22.942 C21.971,22.930 21.971,22.918 21.972,22.905 L22.942,21.935 C22.954,21.934 22.967,21.934 22.979,21.934 C23.243,21.934 23.695,22.021 23.897,22.223 L23.898,22.221 L23.899,22.222 L24.133,22.030 L24.050,21.945 C23.876,21.747 23.778,21.483 23.796,21.198 C23.799,21.152 23.805,21.107 23.814,21.063 L24.623,20.253 C24.710,20.236 24.800,20.230 24.893,20.236 C25.177,20.254 25.427,20.387 25.601,20.585 C25.713,20.713 25.795,20.869 25.832,21.041 C25.886,21.282 25.811,21.367 26.031,21.429 L26.169,21.562 L26.169,23.699 L26.456,23.699 L26.456,26.419 L26.455,26.419 L23.736,26.419 L23.736,26.132 L21.598,26.132 L21.466,25.995 C21.404,25.774 21.319,25.850 21.078,25.795 C20.906,25.758 20.750,25.676 20.621,25.564 C20.423,25.390 20.291,25.140 20.272,24.856 C20.266,24.763 20.273,24.673 20.290,24.587 L20.290,24.587 ZM21.410,23.467 L21.646,23.230 C21.663,23.329 21.691,23.432 21.728,23.533 C21.627,23.498 21.520,23.476 21.410,23.467 L21.410,23.467 ZM23.267,21.610 L23.503,21.373 C23.512,21.484 23.535,21.590 23.569,21.692 C23.468,21.654 23.365,21.626 23.267,21.610 L23.267,21.610 ZM24.933,19.943 L25.476,19.401 C25.484,19.556 25.515,19.713 25.568,19.869 C25.629,20.048 25.719,20.225 25.836,20.391 L25.830,20.385 C25.610,20.135 25.290,19.972 24.933,19.943 L24.933,19.943 ZM24.623,9.645 L23.814,8.836 C23.805,8.792 23.799,8.747 23.796,8.701 C23.778,8.416 23.876,8.152 24.050,7.953 L24.133,7.869 L23.899,7.677 L23.898,7.677 L23.897,7.676 C23.695,7.877 23.243,7.964 22.979,7.964 C22.967,7.964 22.954,7.964 22.941,7.963 L21.972,6.994 C21.971,6.981 21.971,6.969 21.971,6.956 C21.971,6.692 22.058,6.240 22.259,6.038 L22.257,6.037 L22.259,6.037 L22.066,5.802 L21.982,5.886 C21.784,6.059 21.519,6.158 21.235,6.140 C21.189,6.136 21.143,6.130 21.099,6.122 L20.290,5.312 C20.273,5.226 20.266,5.135 20.272,5.043 C20.291,4.758 20.423,4.509 20.621,4.334 C20.750,4.222 20.906,4.141 21.078,4.103 C21.319,4.050 21.404,4.125 21.466,3.904 L21.598,3.767 L23.736,3.767 L23.736,3.480 L26.455,3.479 L26.456,3.480 L26.456,6.199 L26.169,6.199 L26.169,8.337 L26.031,8.470 C25.811,8.532 25.886,8.617 25.832,8.857 C25.795,9.029 25.713,9.185 25.601,9.314 C25.427,9.512 25.177,9.644 24.893,9.663 C24.800,9.669 24.710,9.663 24.623,9.645 L24.623,9.645 ZM23.503,8.525 L23.267,8.289 C23.365,8.272 23.468,8.244 23.569,8.207 C23.535,8.308 23.512,8.415 23.503,8.525 L23.503,8.525 ZM21.646,6.669 L21.410,6.432 C21.520,6.423 21.627,6.400 21.728,6.366 C21.691,6.467 21.663,6.570 21.646,6.669 L21.646,6.669 ZM29.799,0.214 C29.682,0.330 29.315,0.958 29.271,1.115 C29.195,1.389 29.185,1.534 28.961,1.573 C28.760,1.607 28.552,1.521 28.513,1.504 L28.511,1.506 L28.510,1.502 L28.506,1.501 L28.508,1.499 C28.491,1.460 28.405,1.252 28.440,1.051 C28.478,0.828 28.623,0.818 28.898,0.742 C29.168,0.666 29.779,0.228 29.798,0.214 L29.799,0.214 L29.799,0.214 ZM25.199,8.721 C25.565,8.721 25.862,8.424 25.862,8.058 C25.862,8.012 25.857,7.968 25.848,7.925 L25.848,5.836 L26.143,5.836 L26.143,3.794 L25.942,3.993 L26.141,3.792 L24.100,3.792 L24.100,4.087 L22.010,4.087 C21.967,4.078 21.923,4.073 21.877,4.073 C21.511,4.073 21.214,4.370 21.214,4.736 C21.214,5.103 21.511,5.400 21.877,5.400 C22.244,5.400 22.541,5.103 22.541,4.736 C22.541,4.603 22.501,4.478 22.433,4.374 L24.346,4.374 L24.346,4.087 L25.848,4.087 L25.848,5.589 L25.561,5.589 L25.561,7.502 C25.457,7.434 25.333,7.395 25.199,7.395 C24.832,7.395 24.536,7.692 24.536,8.058 C24.536,8.424 24.832,8.721 25.199,8.721 L25.199,8.721 ZM20.529,4.026 C20.703,3.921 20.860,3.958 21.481,3.767 L20.802,3.767 L20.677,3.899 C20.629,3.944 20.579,3.986 20.529,4.026 L20.529,4.026 ZM24.047,5.888 C24.056,5.785 24.098,5.181 23.986,4.970 C23.862,4.737 23.639,4.518 23.585,4.696 C23.530,4.873 23.735,5.044 23.823,5.242 C23.910,5.440 23.928,5.824 23.928,5.824 C23.928,5.824 23.718,5.063 23.322,4.887 C22.926,4.711 22.577,4.815 22.828,5.027 C23.078,5.238 23.635,5.405 23.852,5.819 C23.541,5.528 22.769,5.113 22.810,5.368 C22.851,5.623 23.564,5.744 23.685,5.817 C23.806,5.888 23.865,5.964 23.865,5.964 C23.865,5.964 23.336,5.658 23.037,5.867 C22.737,6.077 22.999,6.235 23.153,6.225 C23.307,6.215 23.629,6.195 23.629,6.195 C23.629,6.195 22.942,6.286 22.866,6.535 C22.790,6.783 22.549,7.285 22.949,6.974 C23.348,6.662 23.273,6.588 22.962,6.986 C22.650,7.385 23.152,7.145 23.400,7.069 C23.649,6.993 23.740,6.307 23.740,6.307 C23.740,6.307 23.720,6.628 23.710,6.782 C23.700,6.936 23.858,7.199 24.068,6.899 C24.278,6.599 23.971,6.070 23.971,6.070 C23.971,6.070 24.046,6.130 24.119,6.250 C24.191,6.371 24.312,7.084 24.567,7.126 C24.822,7.166 24.408,6.394 24.117,6.083 C24.531,6.300 24.697,6.857 24.909,7.107 C25.120,7.358 25.224,7.009 25.048,6.613 C24.873,6.217 24.112,6.007 24.112,6.007 C24.112,6.007 24.495,6.025 24.693,6.113 C24.891,6.201 25.062,6.405 25.239,6.350 C25.417,6.296 25.198,6.073 24.966,5.950 C24.754,5.837 24.150,5.880 24.047,5.888 L24.047,5.888 ZM25.562,4.374 C25.445,4.490 25.078,5.118 25.034,5.274 C24.958,5.548 24.948,5.694 24.724,5.732 C24.523,5.767 24.315,5.681 24.276,5.664 L24.274,5.666 L24.273,5.662 L24.269,5.661 L24.271,5.659 C24.254,5.620 24.168,5.412 24.203,5.211 C24.241,4.987 24.386,4.977 24.661,4.901 C24.931,4.826 25.542,4.388 25.561,4.374 L25.562,4.374 L25.562,4.374 ZM25.910,9.407 C26.015,9.232 25.977,9.075 26.169,8.454 L26.169,9.133 L26.036,9.258 C25.992,9.306 25.950,9.356 25.910,9.407 L25.910,9.407 ZM25.199,21.178 C25.565,21.178 25.862,21.474 25.862,21.841 C25.862,21.886 25.857,21.931 25.848,21.974 L25.848,24.063 L26.143,24.063 L26.143,26.105 L25.942,25.906 L26.141,26.107 L24.100,26.107 L24.100,25.812 L22.010,25.812 C21.967,25.821 21.923,25.825 21.877,25.825 C21.511,25.825 21.214,25.528 21.214,25.162 C21.214,24.795 21.511,24.499 21.877,24.499 C22.244,24.499 22.541,24.795 22.541,25.162 C22.541,25.296 22.501,25.421 22.433,25.524 L24.346,25.524 L24.346,25.812 L25.848,25.812 L25.848,24.310 L25.561,24.310 L25.561,22.396 C25.457,22.464 25.333,22.504 25.199,22.504 C24.832,22.504 24.536,22.207 24.536,21.841 C24.536,21.474 24.832,21.178 25.199,21.178 L25.199,21.178 ZM20.529,25.873 C20.703,25.978 20.860,25.940 21.481,26.132 L20.802,26.132 L20.677,26.000 C20.629,25.955 20.579,25.913 20.529,25.873 L20.529,25.873 ZM24.047,24.011 C24.056,24.114 24.098,24.717 23.986,24.929 C23.862,25.161 23.639,25.380 23.585,25.203 C23.530,25.025 23.735,24.855 23.823,24.657 C23.910,24.458 23.928,24.075 23.928,24.075 C23.928,24.075 23.718,24.836 23.322,25.012 C22.926,25.188 22.577,25.084 22.828,24.872 C23.078,24.661 23.635,24.494 23.852,24.080 C23.541,24.371 22.769,24.785 22.810,24.530 C22.851,24.276 23.564,24.155 23.685,24.082 C23.806,24.010 23.865,23.935 23.865,23.935 C23.865,23.935 23.336,24.241 23.037,24.032 C22.737,23.821 22.999,23.663 23.153,23.674 C23.307,23.684 23.629,23.703 23.629,23.703 C23.629,23.703 22.942,23.612 22.866,23.363 C22.790,23.115 22.549,22.614 22.949,22.925 C23.348,23.237 23.273,23.311 22.962,22.912 C22.650,22.514 23.152,22.754 23.400,22.830 C23.649,22.906 23.740,23.592 23.740,23.592 C23.740,23.592 23.720,23.270 23.710,23.117 C23.700,22.963 23.858,22.700 24.068,23.001 C24.278,23.300 23.971,23.828 23.971,23.828 C23.971,23.828 24.046,23.769 24.119,23.649 C24.191,23.528 24.312,22.814 24.567,22.773 C24.822,22.732 24.408,23.504 24.117,23.816 C24.531,23.599 24.697,23.041 24.909,22.791 C25.120,22.541 25.224,22.890 25.048,23.286 C24.873,23.682 24.112,23.892 24.112,23.892 C24.112,23.892 24.495,23.874 24.693,23.786 C24.891,23.699 25.062,23.494 25.239,23.548 C25.417,23.602 25.198,23.826 24.966,23.949 C24.754,24.061 24.150,24.019 24.047,24.011 L24.047,24.011 ZM25.562,25.525 C25.445,25.409 25.078,24.781 25.034,24.624 C24.958,24.350 24.948,24.205 24.724,24.166 C24.523,24.132 24.315,24.217 24.276,24.235 L24.274,24.233 L24.273,24.237 L24.269,24.237 L24.271,24.240 C24.254,24.279 24.168,24.487 24.203,24.688 C24.241,24.912 24.386,24.922 24.661,24.998 C24.931,25.073 25.542,25.511 25.561,25.525 L25.562,25.525 L25.562,25.525 ZM25.910,20.492 C26.015,20.666 25.977,20.823 26.169,21.445 L26.169,20.766 L26.036,20.640 C25.992,20.593 25.950,20.543 25.910,20.492 L25.910,20.492 ZM29.788,29.718 C29.671,29.602 29.304,28.974 29.260,28.818 C29.185,28.543 29.174,28.398 28.950,28.360 C28.749,28.324 28.541,28.410 28.502,28.428 L28.500,28.426 L28.499,28.430 L28.495,28.431 L28.497,28.433 C28.480,28.472 28.394,28.680 28.429,28.881 C28.467,29.104 28.612,29.115 28.887,29.191 C29.157,29.266 29.768,29.704 29.787,29.718 L29.788,29.718 L29.788,29.718 ZM28.315,28.377 C28.254,28.377 28.204,28.328 28.204,28.266 C28.204,28.205 28.254,28.156 28.315,28.156 C28.376,28.156 28.425,28.205 28.425,28.266 C28.425,28.328 28.376,28.377 28.315,28.377 L28.315,28.377 ZM27.668,27.621 C27.707,27.659 27.828,27.866 27.842,27.918 C27.867,28.008 27.871,28.056 27.944,28.069 C28.011,28.080 28.079,28.052 28.092,28.046 L28.093,28.046 L28.093,28.046 L28.094,28.045 L28.094,28.044 C28.100,28.032 28.128,27.963 28.116,27.897 C28.104,27.823 28.056,27.820 27.965,27.794 C27.876,27.770 27.675,27.625 27.668,27.621 L27.668,27.621 L27.668,27.621 ZM15.420,10.088 L15.633,10.376 L15.430,10.866 L15.217,10.578 L15.420,10.088 L15.420,10.088 ZM15.681,10.441 L15.943,10.797 L15.741,11.286 L15.478,10.931 L15.681,10.441 L15.681,10.441 ZM15.992,10.862 L16.254,11.217 L16.052,11.707 L15.789,11.351 L15.992,10.862 L15.992,10.862 ZM16.228,11.464 L16.244,11.967 L16.100,11.772 L16.228,11.464 L16.228,11.464 ZM15.183,10.661 L15.395,10.950 L15.219,11.374 L15.038,11.012 L15.183,10.661 L15.183,10.661 ZM15.443,11.016 L15.705,11.372 L15.485,11.904 L15.261,11.457 L15.443,11.016 L15.443,11.016 ZM15.753,11.438 L16.015,11.795 L15.948,11.957 L15.783,11.910 L15.797,12.323 L15.750,12.435 L15.526,11.987 L15.753,11.438 L15.753,11.438 ZM16.063,11.861 L16.183,12.024 L16.015,11.976 L16.063,11.861 L16.063,11.861 ZM15.434,12.209 L15.646,12.687 L15.438,13.190 L15.319,13.192 L15.117,12.975 C15.235,12.689 15.317,12.492 15.434,12.209 L15.434,12.209 ZM15.256,12.456 L15.045,11.978 L15.183,11.644 L15.395,12.121 L15.256,12.456 L15.256,12.456 ZM15.685,12.774 L15.866,13.180 L15.514,13.188 L15.685,12.774 L15.685,12.774 ZM16.512,8.959 L16.191,9.210 L16.189,9.214 L16.452,9.570 L16.634,9.130 L16.512,8.959 L16.512,8.959 ZM16.500,9.634 L16.762,9.989 L16.940,9.559 L16.681,9.195 L16.500,9.634 L16.500,9.634 ZM16.811,10.055 L17.062,10.395 L17.236,9.974 L16.988,9.626 L16.811,10.055 L16.811,10.055 ZM17.110,10.461 L17.225,10.616 L17.529,10.385 L17.284,10.041 L17.110,10.461 L17.110,10.461 ZM16.076,9.306 L15.790,9.546 L15.910,9.707 L16.076,9.306 L16.076,9.306 ZM15.958,9.772 L16.220,10.128 L16.414,9.659 L16.152,9.304 L15.958,9.772 L15.958,9.772 ZM16.269,10.193 L16.531,10.548 L16.725,10.080 L16.463,9.725 L16.269,10.193 L16.269,10.193 ZM16.580,10.613 L16.814,10.930 L16.853,10.900 L17.025,10.485 L16.774,10.145 L16.580,10.613 L16.580,10.613 ZM16.963,10.816 L17.159,10.667 L17.073,10.550 L16.963,10.816 L16.963,10.816 ZM15.726,9.599 L15.567,9.732 L15.457,9.999 L15.670,10.287 L15.872,9.797 L15.726,9.599 L15.726,9.599 ZM15.452,9.829 L15.377,9.891 L15.409,9.933 L15.452,9.829 L15.452,9.829 ZM15.718,10.351 L15.981,10.707 L16.183,10.218 L15.921,9.862 L15.718,10.351 L15.718,10.351 ZM16.029,10.772 L16.292,11.127 L16.494,10.638 L16.232,10.283 L16.029,10.772 L16.029,10.772 ZM16.340,11.193 L16.386,11.256 L16.747,10.981 L16.542,10.703 L16.340,11.193 L16.340,11.193 ZM16.241,12.041 L16.247,12.042 L16.247,12.036 L16.241,12.041 L16.241,12.041 ZM17.003,5.297 C17.581,5.438 18.264,6.061 18.333,6.933 L18.090,6.907 C18.088,6.453 17.557,5.898 17.093,5.886 C17.093,5.886 16.981,5.296 17.003,5.297 L17.003,5.297 ZM16.814,8.287 C16.783,8.133 16.905,7.798 16.871,7.744 C16.763,7.571 16.710,7.318 16.783,7.134 C16.803,7.085 16.785,7.458 16.946,7.633 C16.969,7.658 17.052,7.930 17.013,8.195 C17.292,8.303 17.527,8.484 17.543,8.532 C17.615,8.747 17.976,8.944 17.918,8.931 C17.705,8.881 17.497,8.700 17.395,8.523 C17.354,8.451 16.957,8.389 16.814,8.287 L16.814,8.287 ZM15.420,19.829 L15.633,19.541 L15.430,19.052 L15.217,19.339 L15.420,19.829 L15.420,19.829 ZM15.681,19.476 L15.943,19.120 L15.741,18.631 L15.478,18.987 L15.681,19.476 L15.681,19.476 ZM15.992,19.055 L16.254,18.700 L16.052,18.211 L15.789,18.565 L15.992,19.055 L15.992,19.055 ZM16.302,18.635 L16.320,18.611 L16.280,18.580 L16.302,18.635 L16.302,18.635 ZM16.228,18.454 L16.244,17.950 L16.100,18.145 L16.228,18.454 L16.228,18.454 ZM15.183,19.257 L15.395,18.967 L15.219,18.542 L15.038,18.905 L15.183,19.257 L15.183,19.257 ZM15.443,18.902 L15.705,18.545 L15.485,18.013 L15.261,18.460 L15.443,18.902 L15.443,18.902 ZM15.753,18.479 L16.015,18.122 L15.948,17.960 L15.783,18.007 L15.797,17.595 L15.750,17.483 L15.526,17.931 L15.753,18.479 L15.753,18.479 ZM16.063,18.056 L16.183,17.893 L16.015,17.941 L16.063,18.056 L16.063,18.056 ZM15.802,17.426 L15.804,17.376 L15.792,17.400 L15.802,17.426 L15.802,17.426 ZM15.279,17.333 L15.313,17.333 L15.296,17.373 L15.434,17.708 L15.646,17.231 L15.438,16.728 L15.319,16.725 L15.117,16.942 L15.279,17.333 L15.279,17.333 ZM15.256,17.461 L15.045,17.939 L15.183,18.273 L15.395,17.796 L15.256,17.461 L15.256,17.461 ZM15.685,17.143 L15.866,16.737 L15.514,16.730 L15.685,17.143 L15.685,17.143 ZM16.512,20.959 L16.191,20.708 L16.189,20.703 L16.452,20.348 L16.634,20.788 L16.512,20.959 L16.512,20.959 ZM16.500,20.283 L16.762,19.927 L16.940,20.358 L16.681,20.721 L16.500,20.283 L16.500,20.283 ZM16.811,19.862 L17.062,19.522 L17.236,19.943 L16.988,20.291 L16.811,19.862 L16.811,19.862 ZM17.110,19.457 L17.225,19.301 L17.529,19.533 L17.284,19.876 L17.110,19.457 L17.110,19.457 ZM16.076,20.611 L15.790,20.372 L15.910,20.210 L16.076,20.611 L16.076,20.611 ZM15.958,20.145 L16.220,19.789 L16.414,20.258 L16.152,20.613 L15.958,20.145 L15.958,20.145 ZM16.269,19.725 L16.531,19.369 L16.725,19.837 L16.463,20.192 L16.269,19.725 L16.269,19.725 ZM16.580,19.304 L16.814,18.987 L16.853,19.017 L17.025,19.432 L16.774,19.773 L16.580,19.304 L16.580,19.304 ZM16.963,19.101 L17.159,19.251 L17.073,19.367 L16.963,19.101 L16.963,19.101 ZM15.726,20.318 L15.567,20.185 L15.457,19.919 L15.670,19.631 L15.872,20.120 L15.726,20.318 L15.726,20.318 ZM15.452,20.089 L15.377,20.026 L15.409,19.984 L15.452,20.089 L15.452,20.089 ZM15.718,19.566 L15.981,19.210 L16.183,19.699 L15.921,20.055 L15.718,19.566 L15.718,19.566 ZM16.029,19.145 L16.292,18.790 L16.494,19.279 L16.232,19.635 L16.029,19.145 L16.029,19.145 ZM16.340,18.725 L16.386,18.661 L16.747,18.936 L16.542,19.214 L16.340,18.725 L16.340,18.725 ZM16.241,17.877 L16.247,17.875 L16.247,17.880 L16.241,17.877 L16.241,17.877 ZM17.003,24.621 C17.581,24.479 18.264,23.857 18.333,22.984 L18.090,23.011 C18.088,23.464 17.557,24.019 17.093,24.031 C17.093,24.031 16.981,24.621 17.003,24.621 L17.003,24.621 ZM16.814,21.631 C16.783,21.785 16.905,22.119 16.871,22.173 C16.763,22.346 16.710,22.600 16.783,22.783 C16.803,22.832 16.785,22.459 16.946,22.284 C16.969,22.260 17.052,21.988 17.013,21.723 C17.292,21.614 17.527,21.433 17.543,21.387 C17.615,21.170 17.976,20.973 17.918,20.987 C17.705,21.036 17.497,21.218 17.395,21.394 C17.354,21.466 16.957,21.528 16.814,21.631 L16.814,21.631 ZM24.390,14.949 C24.463,15.148 24.544,15.363 24.465,15.504 C24.263,15.863 24.008,15.795 24.066,16.003 C24.082,16.058 24.545,15.827 24.608,15.587 C24.677,15.326 24.598,15.127 24.539,14.965 L24.533,14.949 L24.539,14.934 C24.598,14.772 24.677,14.573 24.608,14.312 C24.545,14.073 24.082,13.841 24.066,13.896 C24.008,14.103 24.263,14.036 24.465,14.395 C24.544,14.535 24.463,14.750 24.390,14.949 L24.390,14.949 ZM27.796,14.949 L27.776,14.939 C27.671,14.886 27.380,14.747 27.223,14.761 C27.053,14.775 26.563,14.913 26.450,14.946 L26.444,14.946 L26.441,14.338 C26.441,14.338 26.206,14.252 26.137,14.460 C26.005,14.855 25.737,14.593 25.658,14.939 L25.655,14.949 L25.658,14.960 C25.737,15.306 26.005,15.044 26.137,15.439 C26.206,15.646 26.441,15.561 26.441,15.561 C26.442,15.359 26.446,15.154 26.444,14.953 L26.450,14.953 C26.563,14.986 27.053,15.123 27.223,15.138 C27.380,15.151 27.671,15.013 27.776,14.960 L27.796,14.949 L27.796,14.949 ZM25.409,14.949 C25.474,15.054 25.848,15.674 25.760,15.866 C25.611,16.189 25.200,15.576 24.903,15.550 C25.272,15.784 25.533,17.063 24.684,16.185 C23.463,17.644 23.943,15.736 23.877,15.717 C23.563,16.104 23.014,15.778 23.800,14.949 C23.013,14.109 23.567,13.800 23.877,14.181 C23.943,14.163 23.463,12.255 24.684,13.714 C25.533,12.835 25.272,14.115 24.903,14.349 C25.200,14.322 25.611,13.709 25.760,14.032 C25.848,14.224 25.474,14.845 25.409,14.949 L25.409,14.949 ZM20.407,13.433 L20.156,13.755 L20.152,13.756 L19.797,13.494 L20.237,13.312 L20.407,13.433 L20.407,13.433 ZM19.732,13.446 L19.376,13.183 L19.807,13.004 L20.170,13.264 L19.732,13.446 L19.732,13.446 ZM19.311,13.135 L18.971,12.883 L19.392,12.709 L19.740,12.958 L19.311,13.135 L19.311,13.135 ZM18.905,12.835 L18.750,12.720 L18.982,12.416 L19.325,12.661 L18.905,12.835 L18.905,12.835 ZM20.060,13.870 L19.821,14.155 L19.659,14.036 L20.060,13.870 L20.060,13.870 ZM19.594,13.988 L19.238,13.725 L19.707,13.531 L20.062,13.794 L19.594,13.988 L19.594,13.988 ZM19.173,13.677 L18.818,13.414 L19.286,13.220 L19.642,13.483 L19.173,13.677 L19.173,13.677 ZM18.752,13.366 L18.436,13.132 L18.466,13.092 L18.881,12.920 L19.221,13.172 L18.752,13.366 L18.752,13.366 ZM18.550,12.982 L18.699,12.786 L18.816,12.872 L18.550,12.982 L18.550,12.982 ZM19.767,14.219 L19.634,14.378 L19.368,14.489 L19.080,14.276 L19.569,14.073 L19.767,14.219 L19.767,14.219 ZM19.537,14.493 L19.475,14.568 L19.433,14.536 L19.537,14.493 L19.537,14.493 ZM19.014,14.227 L18.659,13.965 L19.149,13.762 L19.504,14.025 L19.014,14.227 L19.014,14.227 ZM18.594,13.916 L18.239,13.654 L18.728,13.452 L19.083,13.714 L18.594,13.916 L18.594,13.916 ZM18.173,13.606 L18.110,13.559 L18.385,13.198 L18.663,13.403 L18.173,13.606 L18.173,13.606 ZM19.421,14.631 L19.155,14.949 L19.421,15.267 L19.343,15.325 L18.854,15.122 L19.088,14.949 L18.854,14.776 L19.343,14.574 L19.421,14.631 L19.421,14.631 ZM19.278,15.373 L18.990,15.586 L18.501,15.384 L18.788,15.171 L19.278,15.373 L19.278,15.373 ZM18.925,15.634 L18.569,15.897 L18.080,15.694 L18.435,15.431 L18.925,15.634 L18.925,15.634 ZM18.504,15.945 L18.149,16.208 L17.659,16.006 L18.015,15.742 L18.504,15.945 L18.504,15.945 ZM18.084,16.256 L18.060,16.273 L18.029,16.233 L18.084,16.256 L18.084,16.256 ZM17.903,16.181 L17.399,16.198 L17.594,16.053 L17.903,16.181 L17.903,16.181 ZM18.788,14.728 L18.501,14.515 L18.990,14.313 L19.278,14.525 L18.788,14.728 L18.788,14.728 ZM18.435,14.467 L18.080,14.204 L18.569,14.002 L18.925,14.264 L18.435,14.467 L18.435,14.467 ZM18.015,14.156 L17.659,13.894 L18.149,13.691 L18.504,13.954 L18.015,14.156 L18.015,14.156 ZM17.594,13.845 L17.399,13.701 L17.903,13.717 L17.594,13.845 L17.594,13.845 ZM18.029,13.666 L18.060,13.625 L18.084,13.643 L18.029,13.666 L18.029,13.666 ZM18.437,14.949 L18.437,14.949 L18.764,14.813 L18.954,14.954 L18.771,15.088 L18.437,14.950 L18.437,14.949 L18.437,14.949 ZM18.354,14.908 L17.992,14.726 L18.411,14.552 L18.699,14.765 L18.354,14.908 L18.354,14.908 ZM17.909,14.685 L17.462,14.460 L17.990,14.242 L18.346,14.504 L17.909,14.685 L17.909,14.685 ZM17.379,14.419 L16.932,14.195 L17.043,14.149 L17.456,14.163 L17.409,13.997 L17.570,13.931 L17.925,14.193 L17.379,14.419 L17.379,14.419 ZM16.849,14.154 L16.825,14.141 L16.875,14.143 L16.849,14.154 L16.849,14.154 ZM17.390,13.930 L17.342,13.762 L17.504,13.882 L17.390,13.930 L17.390,13.930 ZM18.705,15.137 L18.416,15.349 L17.992,15.172 L18.354,14.991 L18.705,15.137 L18.705,15.137 ZM18.350,15.396 L17.993,15.659 L17.462,15.438 L17.909,15.214 L18.350,15.396 L18.350,15.396 ZM17.928,15.707 L17.571,15.968 L17.409,15.901 L17.456,15.736 L17.043,15.750 L16.932,15.704 L17.379,15.480 L17.928,15.707 L17.928,15.707 ZM17.505,16.016 L17.342,16.136 L17.390,15.969 L17.505,16.016 L17.505,16.016 ZM16.875,15.756 L16.825,15.757 L16.849,15.745 L16.875,15.756 L16.875,15.756 ZM17.497,14.949 L17.475,14.940 L17.810,14.801 L18.109,14.934 L18.110,14.934 L18.129,14.943 L18.177,14.965 L18.109,14.965 L18.109,14.965 L17.810,15.097 L17.475,14.959 L17.497,14.949 L17.497,14.949 ZM17.388,14.901 L16.910,14.689 L17.245,14.550 L17.722,14.762 L17.388,14.901 L17.388,14.901 ZM16.391,14.829 L16.174,14.627 L16.177,14.508 L16.680,14.299 L17.157,14.512 C16.901,14.617 16.646,14.723 16.391,14.829 L16.391,14.829 ZM16.782,14.742 L16.782,15.157 L16.447,15.018 L16.504,14.965 L16.504,14.934 L16.782,14.742 L16.782,14.742 ZM17.157,15.387 L16.680,15.599 L16.177,15.391 L16.174,15.272 L16.391,15.070 C16.676,15.189 16.874,15.270 17.157,15.387 L17.157,15.387 ZM16.910,15.210 L17.388,14.998 L17.722,15.137 L17.245,15.349 L16.910,15.210 L16.910,15.210 ZM16.178,14.432 L16.185,14.080 L16.592,14.260 L16.178,14.432 L16.178,14.432 ZM16.592,15.639 L16.185,15.820 L16.178,15.468 L16.592,15.639 L16.592,15.639 ZM17.325,13.704 L17.324,13.698 L17.330,13.698 L17.325,13.704 L17.325,13.704 ZM24.069,12.942 C23.928,12.363 23.305,11.682 22.433,11.612 L22.459,11.856 C22.913,11.857 23.468,12.388 23.480,12.852 C23.480,12.852 24.070,12.964 24.069,12.942 L24.069,12.942 ZM20.686,14.083 L19.885,14.949 L20.543,15.638 C21.602,16.300 20.946,15.357 21.805,14.949 C20.990,14.420 21.635,13.831 20.686,14.083 L20.686,14.083 ZM19.448,14.962 L19.448,14.945 L20.699,13.577 C20.655,13.496 20.615,13.420 20.604,13.428 C20.640,13.507 20.691,13.057 20.536,13.027 C19.551,12.844 19.532,12.225 20.211,12.248 C20.289,12.251 18.706,10.883 20.416,11.436 C20.710,10.398 20.788,11.854 21.458,12.229 C20.922,11.177 20.749,10.529 21.080,10.599 C21.371,10.662 21.498,11.151 21.569,11.264 C21.647,11.008 21.661,10.320 22.073,10.367 C22.578,10.425 21.949,11.269 22.012,11.246 C22.769,10.973 22.475,11.384 22.054,11.502 C22.153,11.475 22.252,11.484 22.435,11.580 C22.731,11.736 21.975,12.282 21.667,12.286 C21.719,12.335 23.678,12.365 22.674,12.849 C24.039,14.140 22.169,13.417 22.197,13.497 C22.669,14.808 22.203,14.331 21.629,13.823 C21.718,14.181 21.668,14.675 22.131,14.780 C22.594,14.884 23.339,14.626 23.339,14.626 C23.339,14.626 23.283,14.724 23.294,14.836 C23.298,14.873 23.315,14.913 23.328,14.949 C23.315,14.986 23.298,15.025 23.294,15.064 C23.283,15.175 23.339,15.272 23.339,15.272 C23.339,15.272 22.594,15.014 22.131,15.118 C21.668,15.223 21.718,15.718 21.629,16.075 C22.203,15.568 22.669,15.090 22.197,16.402 C22.169,16.482 24.039,15.759 22.674,17.050 C23.678,17.533 21.719,17.564 21.667,17.612 C21.975,17.616 22.731,18.163 22.435,18.318 C22.252,18.414 22.153,18.423 22.054,18.397 C22.475,18.516 22.769,18.926 22.012,18.653 C21.949,18.630 22.578,19.474 22.073,19.532 C21.661,19.578 21.647,18.891 21.569,18.634 C21.498,18.747 21.371,19.237 21.080,19.299 C20.749,19.370 20.922,18.722 21.458,17.669 C20.788,18.044 20.710,19.500 20.416,18.463 C18.706,19.016 20.289,17.648 20.211,17.651 C19.532,17.672 19.551,17.056 20.536,16.871 C20.691,16.842 20.640,16.392 20.604,16.470 C20.615,16.479 20.655,16.403 20.699,16.322 L19.448,14.962 L19.448,14.962 ZM21.079,13.132 C21.233,13.162 21.567,13.040 21.622,13.074 C21.796,13.182 22.048,13.236 22.232,13.162 C22.281,13.142 21.908,13.161 21.733,12.999 C21.709,12.976 21.437,12.894 21.171,12.932 C21.063,12.653 20.882,12.419 20.835,12.403 C20.619,12.330 20.422,11.970 20.436,12.027 C20.485,12.240 20.667,12.448 20.843,12.550 C20.915,12.592 20.977,12.989 21.079,13.132 L21.079,13.132 ZM20.407,16.465 L20.156,16.144 L20.152,16.142 L19.797,16.405 L20.237,16.587 L20.407,16.465 L20.407,16.465 ZM19.732,16.453 L19.376,16.716 L19.807,16.894 L20.170,16.635 L19.732,16.453 L19.732,16.453 ZM19.311,16.764 L18.971,17.016 L19.392,17.190 L19.740,16.941 L19.311,16.764 L19.311,16.764 ZM18.905,17.063 L18.750,17.179 L18.982,17.482 L19.325,17.238 L18.905,17.063 L18.905,17.063 ZM20.060,16.029 L19.821,15.744 L19.659,15.863 L20.060,16.029 L20.060,16.029 ZM19.594,15.911 L19.238,16.174 L19.707,16.368 L20.062,16.106 L19.594,15.911 L19.594,15.911 ZM19.173,16.222 L18.818,16.485 L19.286,16.679 L19.642,16.416 L19.173,16.222 L19.173,16.222 ZM18.752,16.532 L18.436,16.767 L18.466,16.806 L18.881,16.978 L19.221,16.726 L18.752,16.532 L18.752,16.532 ZM18.550,16.916 L18.699,17.112 L18.816,17.026 L18.550,16.916 L18.550,16.916 ZM19.767,15.680 L19.634,15.521 L19.368,15.410 L19.080,15.623 L19.569,15.826 L19.767,15.680 L19.767,15.680 ZM19.537,15.406 L19.475,15.331 L19.433,15.362 L19.537,15.406 L19.537,15.406 ZM19.014,15.671 L18.659,15.934 L19.149,16.136 L19.504,15.874 L19.014,15.671 L19.014,15.671 ZM18.594,15.982 L18.239,16.245 L18.728,16.447 L19.083,16.185 L18.594,15.982 L18.594,15.982 ZM18.173,16.293 L18.110,16.340 L18.385,16.701 L18.663,16.496 L18.173,16.293 L18.173,16.293 ZM17.325,16.194 L17.324,16.200 L17.330,16.200 L17.325,16.194 L17.325,16.194 ZM24.069,16.957 C23.928,17.535 23.305,18.217 22.433,18.286 L22.459,18.043 C22.913,18.041 23.468,17.510 23.480,17.046 C23.480,17.046 24.070,16.935 24.069,16.957 L24.069,16.957 ZM21.079,16.767 C21.233,16.737 21.567,16.858 21.622,16.825 C21.796,16.716 22.048,16.663 22.232,16.737 C22.281,16.756 21.908,16.738 21.733,16.900 C21.709,16.923 21.437,17.005 21.171,16.967 C21.063,17.246 20.882,17.480 20.835,17.496 C20.619,17.568 20.422,17.929 20.436,17.872 C20.485,17.659 20.667,17.451 20.843,17.349 C20.915,17.307 20.977,16.910 21.079,16.767 L21.079,16.767 ZM28.326,1.555 C28.265,1.555 28.215,1.605 28.215,1.665 C28.215,1.727 28.265,1.777 28.326,1.777 C28.387,1.777 28.436,1.727 28.436,1.665 C28.436,1.605 28.387,1.555 28.326,1.555 L28.326,1.555 ZM27.679,2.312 C27.718,2.273 27.839,2.066 27.853,2.015 C27.878,1.924 27.882,1.876 27.955,1.864 C28.022,1.852 28.090,1.880 28.103,1.886 L28.104,1.885 L28.104,1.887 L28.105,1.887 L28.105,1.887 C28.110,1.901 28.139,1.969 28.127,2.036 C28.115,2.109 28.067,2.113 27.976,2.137 C27.887,2.162 27.686,2.306 27.679,2.312 L27.679,2.312 L27.679,2.312 Z"/>
</svg>
