<!-- https://icomoon.io/ -->
<svg aria-hidden="true" style="position: absolute; width: 0; height: 0; overflow: hidden;" version="1.1" xmlns="http://www.w3.org/2000/svg" xmlns:xlink="http://www.w3.org/1999/xlink">
<defs>

<symbol id="phone" viewBox="0 0 32 32">
<path d="M22 20c-2 2-2 4-4 4s-4-2-6-4-4-4-4-6 2-2 4-4-4-8-6-8-6 6-6 6c0 4 4.109 12.109 8 16s12 8 16 8c0 0 6-4 6-6s-6-8-8-6z"></path>
</symbol>

<symbol id="search" viewBox="0 0 16 16">
<path d="M15.637,13.471 L12.697,10.534 C13.366,9.473 13.754,8.219 13.754,6.873 C13.754,3.081 10.676,0.005 6.879,0.005 C3.082,0.005 0.004,3.081 0.004,6.873 C0.004,10.667 3.082,13.741 6.879,13.741 C8.218,13.741 9.467,13.358 10.524,12.697 L13.468,15.638 C13.937,16.107 14.699,16.107 15.169,15.638 L15.637,15.171 C16.107,14.701 16.107,13.940 15.637,13.471 ZM6.879,11.840 C4.133,11.840 1.907,9.617 1.907,6.873 C1.907,4.130 4.133,1.906 6.879,1.906 C9.625,1.906 11.851,4.130 11.851,6.873 C11.851,9.617 9.625,11.840 6.879,11.840 Z"></path>
</symbol>

<symbol id="document" viewBox="0 0 50 50">
<path d="M12.49974,49.99924v-40.62464h37.50008v40.62464zM43.74985,15.62437h-25.00013v3.12519h25.00013zM43.74985,21.87486h-25.00013v3.12448h25.00013zM43.74985,28.12463h-25.00013v3.12448h25.00013zM43.74985,34.3744h-25.00013v3.12529h25.00013zM43.74985,40.62418h-25.00013v3.12529h25.00013zM37.49965,6.24931h-28.12478v34.37487h-9.37519v-40.62464h37.49997z"></path>
</symbol>

</defs>
</svg>
