<svg xmlns="http://www.w3.org/2000/svg" width="56" height="56" viewBox="0 0 56 56"><defs><clipPath id="t2caa"><path fill="#fff" d="M28.056.481c15.1 0 27.34 12.24 27.34 27.339 0 15.1-12.24 27.34-27.34 27.34C12.957 55.16.717 42.92.717 27.82.717 12.722 12.957.48 28.057.48z"/></clipPath><clipPath id="t2cab"><path fill="#fff" d="M40.068 27.547L22.269 37.823V17.27z"/></clipPath></defs><g><g><path fill="#fff" d="M28.056.481c15.1 0 27.34 12.24 27.34 27.339 0 15.1-12.24 27.34-27.34 27.34C12.957 55.16.717 42.92.717 27.82.717 12.722 12.957.48 28.057.48z"/><path fill="none" stroke="#fff" stroke-linecap="round" stroke-linejoin="round" stroke-miterlimit="20" stroke-width="4" d="M28.056.481c15.1 0 27.34 12.24 27.34 27.339 0 15.1-12.24 27.34-27.34 27.34C12.957 55.16.717 42.92.717 27.82.717 12.722 12.957.48 28.057.48z" clip-path="url(&quot;#t2caa&quot;)"/></g><g><path fill="#010707" d="M40.068 27.547L22.269 37.823V17.27z"/><path fill="none" stroke="#fff" stroke-linecap="round" stroke-linejoin="round" stroke-miterlimit="20" stroke-width="4" d="M40.068 27.547v0L22.269 37.823v0V17.27v0z" clip-path="url(&quot;#t2cab&quot;)"/></g></g></svg>